<svg id="Layer_1" xmlns="http://www.w3.org/2000/svg" xmlns:xlink="http://www.w3.org/1999/xlink" viewBox="0 0 494.4 629.7"><style>.st0{fill:#2dcc9f}.st1{fill:#d0f5f5}.st2{fill:#c8eeee}.st3{opacity:.35;clip-path:url(#SVGID_2_);fill:#9deeee;enable-background:new}.st4{fill:azure}.st5{opacity:.35;clip-path:url(#SVGID_4_);fill:#9deeee;enable-background:new}.st6{clip-path:url(#SVGID_6_)}.st7{opacity:.35;fill:#d0f5f5;enable-background:new}.st8{fill:#94b3ca}.st9,.st10{fill:#ff8aff}.st10{opacity:.35;clip-path:url(#SVGID_8_);enable-background:new}.st11{fill:#733335}.st12{fill:#cdeeee}.st13{opacity:.35;clip-path:url(#SVGID_10_);fill:#9deeee;enable-background:new}.st14{fill:#ddf5f5}.st15{opacity:.35;clip-path:url(#SVGID_12_);fill:#c2f5f5;enable-background:new}.st16{fill:#249e7c}.st17{fill:#1a382f}</style><title>sugarcss-logo</title><circle class="st0" cx="247.2" cy="232.3" r="232.3"/><path class="st1" d="M138.6 166.2l43.1-26.1h194.2l-16.3 45L216 198.3l-77.4-32.1z"/><path class="st2" d="M344.8 165.5l31.5-26.5v148.1l-30.7 64.6-16-140.5 15.2-45.7z"/><defs><path id="SVGID_1_" d="M344.8 165.5l31.5-26.5v148.1l-30.7 64.6-16-140.5 15.2-45.7z"/></defs><clipPath id="SVGID_2_"><use xlink:href="#SVGID_1_" overflow="visible"/></clipPath><path class="st3" d="M272.3 322.8s85.5-19.8 97.8-48.3-21.6 6.9-21.6 6.9l-79.7 25.7 3.5 15.7zm-74.7-2s-11.6 3.4-27.8-3.9c-16.2-7.3-35.8-10.6-35.8-10.6l-2.9-10.6 10.1-5 39.3 15.5 17.1 14.6z"/><path class="st4" d="M138.8 165.9h207.1v185.9H138.8V165.9z"/><defs><path id="SVGID_3_" d="M138.8 165.9h207.1v185.9H138.8z"/></defs><clipPath id="SVGID_4_"><use xlink:href="#SVGID_3_" overflow="visible"/></clipPath><path class="st5" d="M272.3 322.8s85.5-19.8 97.8-48.3-21.6 6.9-21.6 6.9l-79.7 25.7 3.5 15.7zm-74.7-2s-11.6 3.4-27.8-3.9c-16.2-7.3-35.8-10.6-35.8-10.6l-2.9-10.6 10.1-5 39.3 15.5 17.1 14.6z"/><defs><path id="SVGID_5_" d="M374.4 141.1H181.7l-42.4 26v186h207v-2.2l30-63.8v-148z"/></defs><clipPath id="SVGID_6_"><use xlink:href="#SVGID_5_" overflow="visible"/></clipPath><g class="st6"><circle class="st7" cx="162" cy="204.5" r="2.2"/><circle class="st7" cx="162" cy="204.5" r="2"/><circle class="st7" cx="162" cy="204.5" r="2"/><circle class="st7" cx="164.3" cy="189.2" r="2.2"/><circle class="st7" cx="164.3" cy="189.2" r="2"/><circle class="st7" cx="164.3" cy="189.2" r="2"/><circle class="st7" cx="184.4" cy="151.7" r="2.2"/><circle class="st7" cx="184.4" cy="151.7" r="2"/><circle class="st7" cx="184.4" cy="151.7" r="2"/><circle class="st7" cx="175.8" cy="167.9" r="2.2"/><circle class="st7" cx="175.8" cy="167.9" r="2"/><circle class="st7" cx="175.8" cy="167.9" r="2"/><circle class="st7" cx="112.3" cy="184.4" r="2.2"/><circle class="st7" cx="112.3" cy="184.4" r="2"/><circle class="st7" cx="112.3" cy="184.4" r="2"/><circle class="st7" cx="153.1" cy="125.4" r="2.2"/><circle class="st7" cx="153.1" cy="125.4" r="2"/><circle class="st7" cx="153.1" cy="125.4" r="2"/><circle class="st7" cx="163.4" cy="146.1" r="2.2"/><circle class="st7" cx="163.4" cy="146.1" r="2"/><circle class="st7" cx="163.4" cy="146.1" r="2"/><circle class="st7" cx="118.6" cy="170.3" r="2.2"/><circle class="st7" cx="118.6" cy="170.3" r="2"/><circle class="st7" cx="118.6" cy="170.3" r="2"/><circle class="st7" cx="186.6" cy="106.1" r="2.2"/><circle class="st7" cx="186.6" cy="106.1" r="2"/><circle class="st7" cx="186.6" cy="106.1" r="2"/><circle class="st7" cx="118.5" cy="194.1" r="2.2"/><circle class="st7" cx="118.5" cy="194.1" r="2"/><circle class="st7" cx="118.5" cy="194.1" r="2"/><circle class="st7" cx="195.6" cy="121" r="2.2"/><circle class="st7" cx="195.6" cy="121" r="2"/><circle class="st7" cx="195.6" cy="121" r="2"/><circle class="st7" cx="174.7" cy="196.7" r="2.2"/><circle class="st7" cx="174.7" cy="196.7" r="2"/><circle class="st7" cx="174.7" cy="196.7" r="2"/><circle class="st7" cx="142.3" cy="212.9" r="2.2"/><circle class="st7" cx="142.3" cy="212.9" r="2"/><circle class="st7" cx="142.3" cy="212.9" r="2"/><circle class="st7" cx="244.9" cy="103.4" r="2.2"/><circle class="st7" cx="244.9" cy="103.4" r="2"/><circle class="st7" cx="244.9" cy="103.4" r="2"/><circle class="st7" cx="116.4" cy="255.8" r="2.2"/><circle class="st7" cx="116.4" cy="255.8" r="2"/><circle class="st7" cx="116.4" cy="255.8" r="2"/><circle class="st7" cx="259.1" cy="118.7" r="2.2"/><circle class="st7" cx="259.1" cy="118.7" r="2"/><circle class="st7" cx="259.1" cy="118.7" r="2"/><circle class="st7" cx="172.9" cy="246.4" r="2.2"/><circle class="st7" cx="172.9" cy="246.4" r="2"/><circle class="st7" cx="172.9" cy="246.4" r="2"/><circle class="st7" cx="251.6" cy="157.1" r="2.2"/><circle class="st7" cx="251.6" cy="157.1" r="2"/><circle class="st7" cx="251.6" cy="157.1" r="2"/><circle class="st7" cx="250.9" cy="169.1" r="2.2"/><circle class="st7" cx="250.9" cy="169.1" r="2"/><circle class="st7" cx="250.9" cy="169.1" r="2"/><circle class="st7" cx="191.3" cy="215.9" r="2.2"/><circle class="st7" cx="191.3" cy="215.9" r="2"/><circle class="st7" cx="191.3" cy="215.9" r="2"/><circle class="st7" cx="230.7" cy="135.2" r="2.2"/><circle class="st7" cx="230.7" cy="135.2" r="2"/><circle class="st7" cx="230.7" cy="135.2" r="2"/><circle class="st7" cx="232.2" cy="126" r="2.2"/><circle class="st7" cx="232.2" cy="126" r="2"/><circle class="st7" cx="232.2" cy="126" r="2"/><circle class="st7" cx="231.6" cy="148.1" r="2.2"/><circle class="st7" cx="231.6" cy="148.1" r="2"/><circle class="st7" cx="231.6" cy="148.1" r="2"/><circle class="st7" cx="223" cy="144.7" r="2.2"/><circle class="st7" cx="223" cy="144.7" r="2"/><circle class="st7" cx="223" cy="144.7" r="2"/><circle class="st7" cx="226.5" cy="156.4" r="2.2"/><circle class="st7" cx="226.5" cy="156.4" r="2"/><circle class="st7" cx="226.5" cy="156.4" r="2"/><circle class="st7" cx="212" cy="146.9" r="2.2"/><circle class="st7" cx="212" cy="146.9" r="2"/><circle class="st7" cx="212" cy="146.9" r="2"/><circle class="st7" cx="196.3" cy="156" r="2.2"/><circle class="st7" cx="196.3" cy="156" r="2"/><circle class="st7" cx="196.3" cy="156" r="2"/><circle class="st7" cx="170.4" cy="159.4" r="2.2"/><circle class="st7" cx="170.4" cy="159.4" r="2"/><circle class="st7" cx="170.4" cy="159.4" r="2"/><circle class="st7" cx="160.4" cy="164.3" r="2.2"/><circle class="st7" cx="160.4" cy="164.3" r="2"/><circle class="st7" cx="160.4" cy="164.3" r="2"/><circle class="st7" cx="146.7" cy="161.4" r="2.2"/><circle class="st7" cx="146.7" cy="161.4" r="2"/><circle class="st7" cx="146.7" cy="161.4" r="2"/><circle class="st7" cx="140.2" cy="153.3" r="2.2"/><circle class="st7" cx="140.2" cy="153.3" r="2"/><circle class="st7" cx="140.2" cy="153.3" r="2"/><circle class="st7" cx="137.2" cy="162.9" r="2.2"/><circle class="st7" cx="137.2" cy="162.9" r="2"/><circle class="st7" cx="137.2" cy="162.9" r="2"/><circle class="st7" cx="137.6" cy="177.8" r="2.2"/><circle class="st7" cx="137.6" cy="177.8" r="2"/><circle class="st7" cx="137.6" cy="177.8" r="2"/><circle class="st7" cx="140" cy="188.6" r="2.2"/><circle class="st7" cx="140" cy="188.6" r="2"/><circle class="st7" cx="140" cy="188.6" r="2"/><circle class="st7" cx="193.4" cy="185.9" r="2.2"/><circle class="st7" cx="193.4" cy="185.9" r="2"/><circle class="st7" cx="193.4" cy="185.9" r="2"/><circle class="st7" cx="232.3" cy="169.3" r="2.2"/><circle class="st7" cx="232.3" cy="169.3" r="2"/><circle class="st7" cx="232.3" cy="169.3" r="2"/><circle class="st7" cx="255.2" cy="137.4" r="2.2"/><circle class="st7" cx="255.2" cy="137.4" r="2"/><circle class="st7" cx="255.2" cy="137.4" r="2"/><circle class="st7" cx="275" cy="121.4" r="2.2"/><circle class="st7" cx="275" cy="121.4" r="2"/><circle class="st7" cx="275" cy="121.4" r="2"/><circle class="st7" cx="291.1" cy="113.5" r="2.2"/><circle class="st7" cx="291.1" cy="113.5" r="2"/><circle class="st7" cx="291.1" cy="113.5" r="2"/><circle class="st7" cx="322.5" cy="110.3" r="2.2"/><circle class="st7" cx="322.5" cy="110.3" r="2"/><circle class="st7" cx="322.5" cy="110.3" r="2"/><circle class="st7" cx="367.9" cy="125.9" r="2.2"/><circle class="st7" cx="367.9" cy="125.9" r="2"/><circle class="st7" cx="367.9" cy="125.9" r="2"/><circle class="st7" cx="374" cy="135.1" r="2.2"/><circle class="st7" cx="374" cy="135.1" r="2"/><circle class="st7" cx="374" cy="135.1" r="2"/><circle class="st7" cx="327.9" cy="150.1" r="2.2"/><circle class="st7" cx="327.9" cy="150.1" r="2"/><circle class="st7" cx="327.9" cy="150.1" r="2"/><circle class="st7" cx="290.3" cy="158.8" r="2.2"/><circle class="st7" cx="290.3" cy="158.8" r="2"/><circle class="st7" cx="290.3" cy="158.8" r="2"/><circle class="st7" cx="279.1" cy="153.9" r="2.2"/><circle class="st7" cx="279.1" cy="153.9" r="2"/><circle class="st7" cx="279.1" cy="153.9" r="2"/><circle class="st7" cx="280.2" cy="163.7" r="2.2"/><circle class="st7" cx="280.2" cy="163.7" r="2"/><circle class="st7" cx="280.2" cy="163.7" r="2"/><circle class="st7" cx="361.3" cy="136.7" r="2.2"/><circle class="st7" cx="361.3" cy="136.7" r="2"/><circle class="st7" cx="361.3" cy="136.7" r="2"/><circle class="st7" cx="354.4" cy="126" r="2.2"/><circle class="st7" cx="354.4" cy="126" r="2"/><circle class="st7" cx="354.4" cy="126" r="2"/><circle class="st7" cx="319.3" cy="118.7" r="2.2"/><circle class="st7" cx="319.3" cy="118.7" r="2"/><circle class="st7" cx="319.3" cy="118.7" r="2"/><circle class="st7" cx="307.1" cy="115.7" r="2.2"/><circle class="st7" cx="307.1" cy="115.7" r="2"/><circle class="st7" cx="307.1" cy="115.7" r="2"/><circle class="st7" cx="298.6" cy="132.7" r="2.2"/><circle class="st7" cx="298.6" cy="132.7" r="2"/><circle class="st7" cx="298.6" cy="132.7" r="2"/><circle class="st7" cx="300.4" cy="124.8" r="2.2"/><circle class="st7" cx="300.4" cy="124.8" r="2"/><circle class="st7" cx="300.4" cy="124.8" r="2"/><circle class="st7" cx="345.2" cy="142.4" r="2.2"/><circle class="st7" cx="345.2" cy="142.4" r="2"/><circle class="st7" cx="345.2" cy="142.4" r="2"/><circle class="st7" cx="349.2" cy="153.5" r="2.2"/><circle class="st7" cx="349.2" cy="153.5" r="2"/><circle class="st7" cx="349.2" cy="153.5" r="2"/><circle class="st7" cx="334.5" cy="168.7" r="2.2"/><circle class="st7" cx="334.5" cy="168.7" r="2"/><circle class="st7" cx="334.5" cy="168.7" r="2"/><circle class="st7" cx="276.9" cy="187" r="2.2"/><circle class="st7" cx="276.9" cy="187" r="2"/><circle class="st7" cx="276.9" cy="187" r="2"/><circle class="st7" cx="253.2" cy="191.5" r="2.2"/><circle class="st7" cx="253.2" cy="191.5" r="2"/><circle class="st7" cx="253.2" cy="191.5" r="2"/><circle class="st7" cx="239" cy="194" r="2.2"/><circle class="st7" cx="239" cy="194" r="2"/><circle class="st7" cx="239" cy="194" r="2"/><circle class="st7" cx="222.1" cy="222.3" r="2.2"/><circle class="st7" cx="222.1" cy="222.3" r="2"/><circle class="st7" cx="222.1" cy="222.3" r="2"/><circle class="st7" cx="207.7" cy="225.7" r="2.2"/><circle class="st7" cx="207.7" cy="225.7" r="2"/><circle class="st7" cx="207.7" cy="225.7" r="2"/><circle class="st7" cx="261.8" cy="231.3" r="2.2"/><circle class="st7" cx="261.8" cy="231.3" r="2"/><circle class="st7" cx="261.8" cy="231.3" r="2"/><circle class="st7" cx="276.4" cy="220.3" r="2.2"/><circle class="st7" cx="276.4" cy="220.3" r="2"/><circle class="st7" cx="276.4" cy="220.3" r="2"/><circle class="st7" cx="295.1" cy="196.7" r="2.2"/><circle class="st7" cx="295.1" cy="196.7" r="2"/><circle class="st7" cx="295.1" cy="196.7" r="2"/><circle class="st7" cx="368.9" cy="174.8" r="2.2"/><circle class="st7" cx="368.9" cy="174.8" r="2"/><circle class="st7" cx="368.9" cy="174.8" r="2"/><circle class="st7" cx="383.2" cy="162" r="2.2"/><circle class="st7" cx="383.2" cy="162" r="2"/><circle class="st7" cx="383.2" cy="162" r="2"/><circle class="st7" cx="386.5" cy="170.2" r="2.2"/><circle class="st7" cx="386.5" cy="170.2" r="2"/><circle class="st7" cx="386.5" cy="170.2" r="2"/><circle class="st7" cx="379.2" cy="179.8" r="2.2"/><circle class="st7" cx="379.2" cy="179.8" r="2"/><circle class="st7" cx="379.2" cy="179.8" r="2"/><circle class="st7" cx="352.9" cy="213.3" r="2.2"/><circle class="st7" cx="352.9" cy="213.3" r="2"/><circle class="st7" cx="352.9" cy="213.3" r="2"/><circle class="st7" cx="338.1" cy="225.1" r="2.2"/><circle class="st7" cx="338.1" cy="225.1" r="2"/><circle class="st7" cx="338.1" cy="225.1" r="2"/><circle class="st7" cx="325.1" cy="233.7" r="2.2"/><circle class="st7" cx="325.1" cy="233.7" r="2"/><circle class="st7" cx="325.1" cy="233.7" r="2"/><circle class="st7" cx="306.2" cy="248.9" r="2.2"/><circle class="st7" cx="306.2" cy="248.9" r="2"/><circle class="st7" cx="306.2" cy="248.9" r="2"/><circle class="st7" cx="297" cy="262.7" r="2.2"/><circle class="st7" cx="297" cy="262.7" r="2"/><circle class="st7" cx="297" cy="262.7" r="2"/><circle class="st7" cx="278.6" cy="280.9" r="2.2"/><circle class="st7" cx="278.6" cy="280.9" r="2"/><circle class="st7" cx="278.6" cy="280.9" r="2"/><circle class="st7" cx="275.3" cy="295.1" r="2.2"/><circle class="st7" cx="275.3" cy="295.1" r="2"/><circle class="st7" cx="275.3" cy="295.1" r="2"/><circle class="st7" cx="275.8" cy="315.5" r="2.2"/><circle class="st7" cx="275.8" cy="315.5" r="2"/><circle class="st7" cx="275.8" cy="315.5" r="2"/><circle class="st7" cx="303.9" cy="337.2" r="2.2"/><circle class="st7" cx="303.9" cy="337.2" r="2"/><circle class="st7" cx="303.9" cy="337.2" r="2"/><circle class="st7" cx="313.3" cy="350.4" r="2.2"/><circle class="st7" cx="313.3" cy="350.4" r="2"/><circle class="st7" cx="313.3" cy="350.4" r="2"/><circle class="st7" cx="326.9" cy="352.4" r="2.2"/><circle class="st7" cx="326.9" cy="352.4" r="2"/><circle class="st7" cx="326.9" cy="352.4" r="2"/><circle class="st7" cx="352.5" cy="338.8" r="2.2"/><circle class="st7" cx="352.5" cy="338.8" r="2"/><circle class="st7" cx="352.5" cy="338.8" r="2"/><circle class="st7" cx="360.6" cy="300.6" r="2.2"/><circle class="st7" cx="360.6" cy="300.6" r="2"/><circle class="st7" cx="360.6" cy="300.6" r="2"/><circle class="st7" cx="338.9" cy="268.8" r="2.2"/><circle class="st7" cx="338.9" cy="268.8" r="2"/><circle class="st7" cx="338.9" cy="268.8" r="2"/><circle class="st7" cx="315.7" cy="257.1" r="2.2"/><circle class="st7" cx="315.7" cy="257.1" r="2"/><circle class="st7" cx="315.7" cy="257.1" r="2"/><circle class="st7" cx="287.7" cy="256.9" r="2.2"/><circle class="st7" cx="287.7" cy="256.9" r="2"/><circle class="st7" cx="287.7" cy="256.9" r="2"/><circle class="st7" cx="277" cy="255.5" r="2.2"/><circle class="st7" cx="277" cy="255.5" r="2"/><circle class="st7" cx="277" cy="255.5" r="2"/><circle class="st7" cx="286.2" cy="238.5" r="2.2"/><circle class="st7" cx="286.2" cy="238.5" r="2"/><circle class="st7" cx="286.2" cy="238.5" r="2"/><circle class="st7" cx="305.3" cy="217.9" r="2.2"/><circle class="st7" cx="305.3" cy="217.9" r="2"/><circle class="st7" cx="305.3" cy="217.9" r="2"/><circle class="st7" cx="318.2" cy="212.4" r="2.2"/><circle class="st7" cx="318.2" cy="212.4" r="2"/><circle class="st7" cx="318.2" cy="212.4" r="2"/><circle class="st7" cx="340" cy="190.4" r="2.2"/><circle class="st7" cx="340" cy="190.4" r="2"/><circle class="st7" cx="340" cy="190.4" r="2"/><circle class="st7" cx="353.1" cy="187.9" r="2.2"/><circle class="st7" cx="353.1" cy="187.9" r="2"/><circle class="st7" cx="353.1" cy="187.9" r="2"/><circle class="st7" cx="347.9" cy="181.1" r="2.2"/><circle class="st7" cx="347.9" cy="181.1" r="2"/><circle class="st7" cx="347.9" cy="181.1" r="2"/><circle class="st7" cx="342.7" cy="202" r="2.2"/><circle class="st7" cx="342.7" cy="202" r="2"/><circle class="st7" cx="342.7" cy="202" r="2"/><circle class="st7" cx="328.5" cy="196.4" r="2.2"/><circle class="st7" cx="328.5" cy="196.4" r="2"/><circle class="st7" cx="328.5" cy="196.4" r="2"/><circle class="st7" cx="313.8" cy="187.9" r="2.2"/><circle class="st7" cx="313.8" cy="187.9" r="2"/><circle class="st7" cx="313.8" cy="187.9" r="2"/><circle class="st7" cx="304.9" cy="182.2" r="2.2"/><circle class="st7" cx="304.9" cy="182.2" r="2"/><circle class="st7" cx="304.9" cy="182.2" r="2"/><circle class="st7" cx="314.1" cy="175.5" r="2.2"/><circle class="st7" cx="314.1" cy="175.5" r="2"/><circle class="st7" cx="314.1" cy="175.5" r="2"/><circle class="st7" cx="341.4" cy="158.9" r="2.2"/><circle class="st7" cx="341.4" cy="158.9" r="2"/><circle class="st7" cx="341.4" cy="158.9" r="2"/><circle class="st7" cx="337.9" cy="147.7" r="2.2"/><circle class="st7" cx="337.9" cy="147.7" r="2"/><circle class="st7" cx="337.9" cy="147.7" r="2"/><circle class="st7" cx="318.4" cy="132.5" r="2.2"/><circle class="st7" cx="318.4" cy="132.5" r="2"/><circle class="st7" cx="318.4" cy="132.5" r="2"/><circle class="st7" cx="301.8" cy="144.2" r="2.2"/><circle class="st7" cx="301.8" cy="144.2" r="2"/><circle class="st7" cx="301.8" cy="144.2" r="2"/><circle class="st7" cx="243.7" cy="138.3" r="2.2"/><circle class="st7" cx="243.7" cy="138.3" r="2"/><circle class="st7" cx="243.7" cy="138.3" r="2"/><circle class="st7" cx="192.8" cy="136.3" r="2.2"/><circle class="st7" cx="192.8" cy="136.3" r="2"/><circle class="st7" cx="192.8" cy="136.3" r="2"/><circle class="st7" cx="176.2" cy="138.1" r="2.2"/><circle class="st7" cx="176.2" cy="138.1" r="2"/><circle class="st7" cx="176.2" cy="138.1" r="2"/><circle class="st7" cx="176.6" cy="127.9" r="2.2"/><circle class="st7" cx="176.6" cy="127.9" r="2"/><circle class="st7" cx="176.6" cy="127.9" r="2"/><circle class="st7" cx="167.8" cy="126.9" r="2.2"/><circle class="st7" cx="167.8" cy="126.9" r="2"/><circle class="st7" cx="167.8" cy="126.9" r="2"/><circle class="st7" cx="164" cy="135.8" r="2.2"/><circle class="st7" cx="164" cy="135.8" r="2"/><circle class="st7" cx="164" cy="135.8" r="2"/><circle class="st7" cx="152.3" cy="201.9" r="2.2"/><circle class="st7" cx="152.3" cy="201.9" r="2"/><circle class="st7" cx="152.3" cy="201.9" r="2"/><circle class="st7" cx="144.5" cy="239.8" r="2.2"/><circle class="st7" cx="144.5" cy="239.8" r="2"/><circle class="st7" cx="144.5" cy="239.8" r="2"/><circle class="st7" cx="143.6" cy="251.1" r="2.2"/><circle class="st7" cx="143.6" cy="251.1" r="2"/><circle class="st7" cx="143.6" cy="251.1" r="2"/><circle class="st7" cx="140.1" cy="265.4" r="2.2"/><circle class="st7" cx="140.1" cy="265.4" r="2"/><circle class="st7" cx="140.1" cy="265.4" r="2"/><circle class="st7" cx="148.9" cy="270.6" r="2.2"/><circle class="st7" cx="148.9" cy="270.6" r="2"/><circle class="st7" cx="148.9" cy="270.6" r="2"/><circle class="st7" cx="160.2" cy="298.6" r="2.2"/><circle class="st7" cx="160.2" cy="298.6" r="2"/><circle class="st7" cx="160.2" cy="298.6" r="2"/><circle class="st7" cx="164.6" cy="323.5" r="2.2"/><circle class="st7" cx="164.6" cy="323.5" r="2"/><circle class="st7" cx="164.6" cy="323.5" r="2"/><circle class="st7" cx="160.4" cy="342.4" r="2.2"/><circle class="st7" cx="160.4" cy="342.4" r="2"/><circle class="st7" cx="160.4" cy="342.4" r="2"/><circle class="st7" cx="156.4" cy="356.9" r="2.2"/><circle class="st7" cx="156.4" cy="356.9" r="2"/><circle class="st7" cx="156.4" cy="356.9" r="2"/><circle class="st7" cx="147.3" cy="357.4" r="2.2"/><circle class="st7" cx="147.3" cy="357.4" r="2"/><circle class="st7" cx="147.3" cy="357.4" r="2"/><circle class="st7" cx="133.5" cy="329.4" r="2.2"/><circle class="st7" cx="133.5" cy="329.4" r="2"/><circle class="st7" cx="133.5" cy="329.4" r="2"/><circle class="st7" cx="141" cy="298.8" r="2.2"/><circle class="st7" cx="141" cy="298.8" r="2"/><circle class="st7" cx="141" cy="298.8" r="2"/><circle class="st7" cx="177.4" cy="264.7" r="2.2"/><circle class="st7" cx="177.4" cy="264.7" r="2"/><circle class="st7" cx="177.4" cy="264.7" r="2"/><circle class="st7" cx="196.2" cy="249" r="2.2"/><circle class="st7" cx="196.2" cy="249" r="2"/><circle class="st7" cx="196.2" cy="249" r="2"/><circle class="st7" cx="200.7" cy="262.5" r="2.2"/><circle class="st7" cx="200.7" cy="262.5" r="2"/><circle class="st7" cx="200.7" cy="262.5" r="2"/><circle class="st7" cx="201.2" cy="309.9" r="2.2"/><circle class="st7" cx="201.2" cy="309.9" r="2"/><circle class="st7" cx="201.2" cy="309.9" r="2"/><circle class="st7" cx="203.5" cy="328.5" r="2.2"/><circle class="st7" cx="203.5" cy="328.5" r="2"/><circle class="st7" cx="203.5" cy="328.5" r="2"/><circle class="st7" cx="205.3" cy="340.9" r="2.2"/><circle class="st7" cx="205.3" cy="340.9" r="2"/><circle class="st7" cx="205.3" cy="340.9" r="2"/><circle class="st7" cx="214.8" cy="345.5" r="2.2"/><circle class="st7" cx="214.8" cy="345.5" r="2"/><circle class="st7" cx="214.8" cy="345.5" r="2"/><circle class="st7" cx="250.9" cy="352.8" r="2.2"/><circle class="st7" cx="250.9" cy="352.8" r="2"/><circle class="st7" cx="250.9" cy="352.8" r="2"/><circle class="st7" cx="266.6" cy="361.3" r="2.2"/><circle class="st7" cx="266.6" cy="361.3" r="2"/><circle class="st7" cx="266.6" cy="361.3" r="2"/><circle class="st7" cx="264.5" cy="353.2" r="2.2"/><circle class="st7" cx="264.5" cy="353.2" r="2"/><circle class="st7" cx="264.5" cy="353.2" r="2"/><circle class="st7" cx="238.3" cy="333.9" r="2.2"/><circle class="st7" cx="238.3" cy="333.9" r="2"/><circle class="st7" cx="238.3" cy="333.9" r="2"/><circle class="st7" cx="227.3" cy="318.3" r="2.2"/><circle class="st7" cx="227.3" cy="318.3" r="2"/><circle class="st7" cx="227.3" cy="318.3" r="2"/><circle class="st7" cx="229.1" cy="309.4" r="2.2"/><circle class="st7" cx="229.1" cy="309.4" r="2"/><circle class="st7" cx="229.1" cy="309.4" r="2"/><circle class="st7" cx="217.6" cy="304.8" r="2.2"/><circle class="st7" cx="217.6" cy="304.8" r="2"/><circle class="st7" cx="217.6" cy="304.8" r="2"/><circle class="st7" cx="209.2" cy="299" r="2.2"/><circle class="st7" cx="209.2" cy="299" r="2"/><circle class="st7" cx="209.2" cy="299" r="2"/><circle class="st7" cx="198.3" cy="288.8" r="2.2"/><circle class="st7" cx="198.3" cy="288.8" r="2"/><circle class="st7" cx="198.3" cy="288.8" r="2"/><circle class="st7" cx="211.9" cy="286" r="2.2"/><circle class="st7" cx="211.9" cy="286" r="2"/><circle class="st7" cx="211.9" cy="286" r="2"/><circle class="st7" cx="254" cy="294.6" r="2.2"/><circle class="st7" cx="254" cy="294.6" r="2"/><circle class="st7" cx="254" cy="294.6" r="2"/><circle class="st7" cx="266.3" cy="302.9" r="2.2"/><circle class="st7" cx="266.3" cy="302.9" r="2"/><circle class="st7" cx="266.3" cy="302.9" r="2"/><circle class="st7" cx="290.6" cy="314.1" r="2.2"/><circle class="st7" cx="290.6" cy="314.1" r="2"/><circle class="st7" cx="290.6" cy="314.1" r="2"/><circle class="st7" cx="295.4" cy="325" r="2.2"/><circle class="st7" cx="295.4" cy="325" r="2"/><circle class="st7" cx="295.4" cy="325" r="2"/><circle class="st7" cx="288" cy="339.5" r="2.2"/><circle class="st7" cx="288" cy="339.5" r="2"/><circle class="st7" cx="288" cy="339.5" r="2"/><circle class="st7" cx="288.1" cy="351.4" r="2.2"/><circle class="st7" cx="288.1" cy="351.4" r="2"/><circle class="st7" cx="288.1" cy="351.4" r="2"/><circle class="st7" cx="300.3" cy="349.7" r="2.2"/><circle class="st7" cx="300.3" cy="349.7" r="2"/><circle class="st7" cx="300.3" cy="349.7" r="2"/><circle class="st7" cx="325.2" cy="337.7" r="2.2"/><circle class="st7" cx="325.2" cy="337.7" r="2"/><circle class="st7" cx="325.2" cy="337.7" r="2"/><circle class="st7" cx="357.3" cy="324.8" r="2.2"/><circle class="st7" cx="357.3" cy="324.8" r="2"/><circle class="st7" cx="357.3" cy="324.8" r="2"/><circle class="st7" cx="368.8" cy="312.8" r="2.2"/><circle class="st7" cx="368.8" cy="312.8" r="2"/><circle class="st7" cx="368.8" cy="312.8" r="2"/><circle class="st7" cx="377.6" cy="298.9" r="2.2"/><circle class="st7" cx="377.6" cy="298.9" r="2"/><circle class="st7" cx="377.6" cy="298.9" r="2"/><circle class="st7" cx="379.9" cy="288.7" r="2.2"/><circle class="st7" cx="379.9" cy="288.7" r="2"/><circle class="st7" cx="379.9" cy="288.7" r="2"/><circle class="st7" cx="387.5" cy="283.5" r="2.2"/><circle class="st7" cx="387.5" cy="283.5" r="2"/><circle class="st7" cx="387.5" cy="283.5" r="2"/><circle class="st7" cx="381.9" cy="272.6" r="2.2"/><circle class="st7" cx="381.9" cy="272.6" r="2"/><circle class="st7" cx="381.9" cy="272.6" r="2"/><circle class="st7" cx="378.7" cy="256" r="2.2"/><circle class="st7" cx="378.7" cy="256" r="2"/><circle class="st7" cx="378.7" cy="256" r="2"/><circle class="st7" cx="385" cy="238.1" r="2.2"/><circle class="st7" cx="385" cy="238.1" r="2"/><circle class="st7" cx="385" cy="238.1" r="2"/><circle class="st7" cx="376.5" cy="241.8" r="2.2"/><circle class="st7" cx="376.5" cy="241.8" r="2"/><circle class="st7" cx="376.5" cy="241.8" r="2"/><circle class="st7" cx="357.3" cy="276.5" r="2.2"/><circle class="st7" cx="357.3" cy="276.5" r="2"/><circle class="st7" cx="357.3" cy="276.5" r="2"/><circle class="st7" cx="348.6" cy="305.4" r="2.2"/><circle class="st7" cx="348.6" cy="305.4" r="2"/><circle class="st7" cx="348.6" cy="305.4" r="2"/><circle class="st7" cx="345.6" cy="319.6" r="2.2"/><circle class="st7" cx="345.6" cy="319.6" r="2"/><circle class="st7" cx="345.6" cy="319.6" r="2"/><circle class="st7" cx="342.1" cy="334" r="2.2"/><circle class="st7" cx="342.1" cy="334" r="2"/><circle class="st7" cx="342.1" cy="334" r="2"/><circle class="st7" cx="336" cy="328.1" r="2.2"/><circle class="st7" cx="336" cy="328.1" r="2"/><circle class="st7" cx="336" cy="328.1" r="2"/><circle class="st7" cx="332.6" cy="312.2" r="2.2"/><circle class="st7" cx="332.6" cy="312.2" r="2"/><circle class="st7" cx="332.6" cy="312.2" r="2"/><circle class="st7" cx="327.3" cy="303.4" r="2.2"/><circle class="st7" cx="327.3" cy="303.4" r="2"/><circle class="st7" cx="327.3" cy="303.4" r="2"/><circle class="st7" cx="333" cy="296.9" r="2.2"/><circle class="st7" cx="333" cy="296.9" r="2"/><circle class="st7" cx="333" cy="296.9" r="2"/><circle class="st7" cx="319.2" cy="315.6" r="2.2"/><circle class="st7" cx="319.2" cy="315.6" r="2"/><circle class="st7" cx="319.2" cy="315.6" r="2"/><circle class="st7" cx="317.1" cy="307.9" r="2.2"/><circle class="st7" cx="317.1" cy="307.9" r="2"/><circle class="st7" cx="317.1" cy="307.9" r="2"/><circle class="st7" cx="308" cy="300" r="2.2"/><circle class="st7" cx="308" cy="300" r="2"/><circle class="st7" cx="308" cy="300" r="2"/><circle class="st7" cx="315.8" cy="285.8" r="2.2"/><circle class="st7" cx="315.8" cy="285.8" r="2"/><circle class="st7" cx="315.8" cy="285.8" r="2"/><circle class="st7" cx="297.5" cy="286.7" r="2.2"/><circle class="st7" cx="297.5" cy="286.7" r="2"/><circle class="st7" cx="297.5" cy="286.7" r="2"/><circle class="st7" cx="305.9" cy="288.4" r="2.2"/><circle class="st7" cx="305.9" cy="288.4" r="2"/><circle class="st7" cx="305.9" cy="288.4" r="2"/><circle class="st7" cx="307" cy="278.7" r="2.2"/><circle class="st7" cx="307" cy="278.7" r="2"/><circle class="st7" cx="307" cy="278.7" r="2"/><circle class="st7" cx="321.1" cy="270.3" r="2.2"/><circle class="st7" cx="321.1" cy="270.3" r="2"/><circle class="st7" cx="321.1" cy="270.3" r="2"/><circle class="st7" cx="344.8" cy="250.2" r="2.2"/><circle class="st7" cx="344.8" cy="250.2" r="2"/><circle class="st7" cx="344.8" cy="250.2" r="2"/><circle class="st7" cx="355.3" cy="241.9" r="2.2"/><circle class="st7" cx="355.3" cy="241.9" r="2"/><circle class="st7" cx="355.3" cy="241.9" r="2"/><circle class="st7" cx="362.5" cy="233" r="2.2"/><circle class="st7" cx="362.5" cy="233" r="2"/><circle class="st7" cx="362.5" cy="233" r="2"/><circle class="st7" cx="367.8" cy="224.4" r="2.2"/><circle class="st7" cx="367.8" cy="224.4" r="2"/><circle class="st7" cx="367.8" cy="224.4" r="2"/><circle class="st7" cx="377.8" cy="224.1" r="2.2"/><circle class="st7" cx="377.8" cy="224.1" r="2"/><circle class="st7" cx="377.8" cy="224.1" r="2"/><circle class="st7" cx="380.5" cy="214.8" r="2.2"/><circle class="st7" cx="380.5" cy="214.8" r="2"/><circle class="st7" cx="380.5" cy="214.8" r="2"/><circle class="st7" cx="367.2" cy="204.9" r="2.2"/><circle class="st7" cx="367.2" cy="204.9" r="2"/><circle class="st7" cx="367.2" cy="204.9" r="2"/><circle class="st7" cx="335" cy="205.1" r="2.2"/><circle class="st7" cx="335" cy="205.1" r="2"/><circle class="st7" cx="335" cy="205.1" r="2"/><circle class="st7" cx="318.1" cy="199.3" r="2.2"/><circle class="st7" cx="318.1" cy="199.3" r="2"/><circle class="st7" cx="318.1" cy="199.3" r="2"/><circle class="st7" cx="280.6" cy="200.9" r="2.2"/><circle class="st7" cx="280.6" cy="200.9" r="2"/><circle class="st7" cx="280.6" cy="200.9" r="2"/><circle class="st7" cx="260.4" cy="201.7" r="2.2"/><circle class="st7" cx="260.4" cy="201.7" r="2"/><circle class="st7" cx="260.4" cy="201.7" r="2"/><circle class="st7" cx="228.8" cy="201.1" r="2.2"/><circle class="st7" cx="228.8" cy="201.1" r="2"/><circle class="st7" cx="228.8" cy="201.1" r="2"/><circle class="st7" cx="217.7" cy="212.3" r="2.2"/><circle class="st7" cx="217.7" cy="212.3" r="2"/><circle class="st7" cx="217.7" cy="212.3" r="2"/><circle class="st7" cx="214.4" cy="230.3" r="2.2"/><circle class="st7" cx="214.4" cy="230.3" r="2"/><circle class="st7" cx="214.4" cy="230.3" r="2"/><circle class="st7" cx="218.9" cy="240.1" r="2.2"/><circle class="st7" cx="218.9" cy="240.1" r="2"/><circle class="st7" cx="218.9" cy="240.1" r="2"/><circle class="st7" cx="237.4" cy="240.8" r="2.2"/><circle class="st7" cx="237.4" cy="240.8" r="2"/><circle class="st7" cx="237.4" cy="240.8" r="2"/><circle class="st7" cx="247.6" cy="229.7" r="2.2"/><circle class="st7" cx="247.6" cy="229.7" r="2"/><circle class="st7" cx="247.6" cy="229.7" r="2"/><circle class="st7" cx="243.6" cy="213.9" r="2.2"/><circle class="st7" cx="243.6" cy="213.9" r="2"/><circle class="st7" cx="243.6" cy="213.9" r="2"/><circle class="st7" cx="232.9" cy="210.1" r="2.2"/><circle class="st7" cx="232.9" cy="210.1" r="2"/><circle class="st7" cx="232.9" cy="210.1" r="2"/><circle class="st7" cx="203.5" cy="210.6" r="2.2"/><circle class="st7" cx="203.5" cy="210.6" r="2"/><circle class="st7" cx="203.5" cy="210.6" r="2"/><circle class="st7" cx="175" cy="220.5" r="2.2"/><circle class="st7" cx="175" cy="220.5" r="2"/><circle class="st7" cx="175" cy="220.5" r="2"/><circle class="st7" cx="149.8" cy="226.9" r="2.2"/><circle class="st7" cx="149.8" cy="226.9" r="2"/><circle class="st7" cx="149.8" cy="226.9" r="2"/><circle class="st7" cx="124.5" cy="231.5" r="2.2"/><circle class="st7" cx="124.5" cy="231.5" r="2"/><circle class="st7" cx="124.5" cy="231.5" r="2"/><circle class="st7" cx="119.6" cy="221.1" r="2.2"/><circle class="st7" cx="119.6" cy="221.1" r="2"/><circle class="st7" cx="119.6" cy="221.1" r="2"/><circle class="st7" cx="125.1" cy="202" r="2.2"/><circle class="st7" cx="125.1" cy="202" r="2"/><circle class="st7" cx="125.1" cy="202" r="2"/><circle class="st7" cx="152.6" cy="177.5" r="2.2"/><circle class="st7" cx="152.6" cy="177.5" r="2"/><circle class="st7" cx="152.6" cy="177.5" r="2"/><circle class="st7" cx="190.1" cy="165.4" r="2.2"/><circle class="st7" cx="190.1" cy="165.4" r="2"/><circle class="st7" cx="190.1" cy="165.4" r="2"/><circle class="st7" cx="208.3" cy="169.7" r="2.2"/><circle class="st7" cx="208.3" cy="169.7" r="2"/><circle class="st7" cx="208.3" cy="169.7" r="2"/><circle class="st7" cx="214.1" cy="160.2" r="2.2"/><circle class="st7" cx="214.1" cy="160.2" r="2"/><circle class="st7" cx="214.1" cy="160.2" r="2"/><circle class="st7" cx="217.4" cy="124" r="2.2"/><circle class="st7" cx="217.4" cy="124" r="2"/><circle class="st7" cx="217.4" cy="124" r="2"/><circle class="st7" cx="216.9" cy="132.8" r="2.2"/><circle class="st7" cx="216.9" cy="132.8" r="2"/><circle class="st7" cx="216.9" cy="132.8" r="2"/><circle class="st7" cx="261.2" cy="161.7" r="2.2"/><circle class="st7" cx="261.2" cy="161.7" r="2"/><circle class="st7" cx="261.2" cy="161.7" r="2"/><circle class="st7" cx="260.9" cy="176.5" r="2.2"/><circle class="st7" cx="260.9" cy="176.5" r="2"/><circle class="st7" cx="260.9" cy="176.5" r="2"/><circle class="st7" cx="213.6" cy="181" r="2.2"/><circle class="st7" cx="213.6" cy="181" r="2"/><circle class="st7" cx="213.6" cy="181" r="2"/><circle class="st7" cx="182.4" cy="180.3" r="2.2"/><circle class="st7" cx="182.4" cy="180.3" r="2"/><circle class="st7" cx="182.4" cy="180.3" r="2"/><circle class="st7" cx="190.5" cy="176.1" r="2.2"/><circle class="st7" cx="190.5" cy="176.1" r="2"/><circle class="st7" cx="190.5" cy="176.1" r="2"/><circle class="st7" cx="261.5" cy="148.1" r="2.2"/><circle class="st7" cx="261.5" cy="148.1" r="2"/><circle class="st7" cx="261.5" cy="148.1" r="2"/><circle class="st7" cx="310.3" cy="143" r="2.2"/><circle class="st7" cx="310.3" cy="143" r="2"/><circle class="st7" cx="310.3" cy="143" r="2"/><circle class="st7" cx="320.4" cy="141.9" r="2.2"/><circle class="st7" cx="320.4" cy="141.9" r="2"/><circle class="st7" cx="320.4" cy="141.9" r="2"/><circle class="st7" cx="329.7" cy="120.7" r="2.2"/><circle class="st7" cx="329.7" cy="120.7" r="2"/><circle class="st7" cx="329.7" cy="120.7" r="2"/><circle class="st7" cx="338.1" cy="115.9" r="2.2"/><circle class="st7" cx="338.1" cy="115.9" r="2"/><circle class="st7" cx="338.1" cy="115.9" r="2"/><circle class="st7" cx="335.4" cy="127.3" r="2.2"/><circle class="st7" cx="335.4" cy="127.3" r="2"/><circle class="st7" cx="335.4" cy="127.3" r="2"/><circle class="st7" cx="277" cy="135.5" r="2.2"/><circle class="st7" cx="277" cy="135.5" r="2"/><circle class="st7" cx="277" cy="135.5" r="2"/><circle class="st7" cx="279.8" cy="143.4" r="2.2"/><circle class="st7" cx="279.8" cy="143.4" r="2"/><circle class="st7" cx="279.8" cy="143.4" r="2"/><circle class="st7" cx="310.7" cy="156.3" r="2.2"/><circle class="st7" cx="310.7" cy="156.3" r="2"/><circle class="st7" cx="310.7" cy="156.3" r="2"/><circle class="st7" cx="320.2" cy="156.2" r="2.2"/><circle class="st7" cx="320.2" cy="156.2" r="2"/><circle class="st7" cx="320.2" cy="156.2" r="2"/><circle class="st7" cx="360.1" cy="152.3" r="2.2"/><circle class="st7" cx="360.1" cy="152.3" r="2"/><circle class="st7" cx="360.1" cy="152.3" r="2"/><circle class="st7" cx="371.4" cy="164.6" r="2.2"/><circle class="st7" cx="371.4" cy="164.6" r="2"/><circle class="st7" cx="371.4" cy="164.6" r="2"/><circle class="st7" cx="386.2" cy="190" r="2.2"/><circle class="st7" cx="386.2" cy="190" r="2"/><circle class="st7" cx="386.2" cy="190" r="2"/><circle class="st7" cx="393.8" cy="211.6" r="2.2"/><circle class="st7" cx="393.8" cy="211.6" r="2"/><circle class="st7" cx="393.8" cy="211.6" r="2"/><circle class="st7" cx="397.4" cy="229.2" r="2.2"/><circle class="st7" cx="397.4" cy="229.2" r="2"/><circle class="st7" cx="397.4" cy="229.2" r="2"/><circle class="st7" cx="399.3" cy="250.2" r="2.2"/><circle class="st7" cx="399.3" cy="250.2" r="2"/><circle class="st7" cx="399.3" cy="250.2" r="2"/><circle class="st7" cx="400.9" cy="272.2" r="2.2"/><circle class="st7" cx="400.9" cy="272.2" r="2"/><circle class="st7" cx="400.9" cy="272.2" r="2"/><circle class="st7" cx="401.8" cy="289.3" r="2.2"/><circle class="st7" cx="401.8" cy="289.3" r="2"/><circle class="st7" cx="401.8" cy="289.3" r="2"/><circle class="st7" cx="397.7" cy="305" r="2.2"/><circle class="st7" cx="397.7" cy="305" r="2"/><circle class="st7" cx="397.7" cy="305" r="2"/><circle class="st7" cx="391.8" cy="322.4" r="2.2"/><circle class="st7" cx="391.8" cy="322.4" r="2"/><circle class="st7" cx="391.8" cy="322.4" r="2"/><circle class="st7" cx="368.2" cy="352.7" r="2.2"/><circle class="st7" cx="368.2" cy="352.7" r="2"/><circle class="st7" cx="368.2" cy="352.7" r="2"/><circle class="st7" cx="334.5" cy="372.3" r="2.2"/><circle class="st7" cx="334.5" cy="372.3" r="2"/><circle class="st7" cx="334.5" cy="372.3" r="2"/><circle class="st7" cx="283.8" cy="382.5" r="2.2"/><circle class="st7" cx="283.8" cy="382.5" r="2"/><circle class="st7" cx="283.8" cy="382.5" r="2"/><circle class="st7" cx="259.1" cy="384.3" r="2.2"/><circle class="st7" cx="259.1" cy="384.3" r="2"/><circle class="st7" cx="259.1" cy="384.3" r="2"/><circle class="st7" cx="236.9" cy="389.3" r="2.2"/><circle class="st7" cx="236.9" cy="389.3" r="2"/><circle class="st7" cx="236.9" cy="389.3" r="2"/><circle class="st7" cx="211.8" cy="395.2" r="2.2"/><circle class="st7" cx="211.8" cy="395.2" r="2"/><circle class="st7" cx="211.8" cy="395.2" r="2"/><circle class="st7" cx="201.4" cy="394.8" r="2.2"/><circle class="st7" cx="201.4" cy="394.8" r="2"/><circle class="st7" cx="201.4" cy="394.8" r="2"/><circle class="st7" cx="171.1" cy="388.6" r="2.2"/><circle class="st7" cx="171.1" cy="388.6" r="2"/><circle class="st7" cx="171.1" cy="388.6" r="2"/><circle class="st7" cx="161.8" cy="385.5" r="2.2"/><circle class="st7" cx="161.8" cy="385.5" r="2"/><circle class="st7" cx="161.8" cy="385.5" r="2"/><circle class="st7" cx="171.8" cy="368.6" r="2.2"/><circle class="st7" cx="171.8" cy="368.6" r="2"/><circle class="st7" cx="171.8" cy="368.6" r="2"/><circle class="st7" cx="176.2" cy="348.1" r="2.2"/><circle class="st7" cx="176.2" cy="348.1" r="2"/><circle class="st7" cx="176.2" cy="348.1" r="2"/><circle class="st7" cx="176" cy="319.6" r="2.2"/><circle class="st7" cx="176" cy="319.6" r="2"/><circle class="st7" cx="176" cy="319.6" r="2"/><circle class="st7" cx="173.7" cy="302.7" r="2.2"/><circle class="st7" cx="173.7" cy="302.7" r="2"/><circle class="st7" cx="173.7" cy="302.7" r="2"/><circle class="st7" cx="176.5" cy="288.9" r="2.2"/><circle class="st7" cx="176.5" cy="288.9" r="2"/><circle class="st7" cx="176.5" cy="288.9" r="2"/></g><path class="st8" d="M216.4 227.2c.3-5.8-.2-11.7-1.5-17.4-.6-2.7-1.7-5.3-3.4-7.6-1.6-2.1-4.1-3.2-6.7-3-2.6.1-5.1 1.3-6.8 3.4-1.7 2.2-2.9 4.8-3.5 7.5-1.3 5.7-1.9 11.5-1.5 17.3.1 1.6-1.1 1.8-1.3.1-.3-3-.5-6-.4-9 0-3 .4-6 1-9 .6-3.1 1.9-6 3.8-8.5 1-1.3 2.3-2.4 3.8-3.1 1.5-.7 3.1-1.2 4.8-1.2 3.4-.2 6.7 1.3 8.8 4.1 1 1.3 1.8 2.7 2.3 4.2.6 1.4 1 2.9 1.3 4.4.6 3 .9 6 .9 9 .1 3-.1 6-.4 9-.1 2-1.2 1.8-1.2-.2zm52 .2c-.3-3-.5-6-.4-9 0-3 .3-6 .9-9 .3-1.5.7-3 1.3-4.4.6-1.5 1.3-2.9 2.3-4.2 2.1-2.7 5.4-4.3 8.8-4.1 1.7.1 3.3.5 4.8 1.2 1.5.8 2.8 1.8 3.8 3.1 1.9 2.5 3.2 5.4 3.8 8.5.6 3 1 6 1 9 .1 3-.1 6-.4 9-.2 1.7-1.4 1.5-1.3-.1.3-5.8-.2-11.7-1.5-17.3-.6-2.7-1.8-5.3-3.5-7.5-1.7-2.1-4.1-3.3-6.8-3.4-2.6-.2-5.1.9-6.7 3-1.6 2.2-2.8 4.8-3.4 7.6-1.2 5.7-1.7 11.5-1.5 17.4.2 2-1 2.2-1.2.2z"/><path class="st9" d="M244.7 261.7c-7.5-.6-12.1 4.5-14.6 8.9 2.5 7.2 6.6 12.7 13.6 12.3s11.2-5.9 14.1-12.9c-2.5-3.7-6.5-7.7-13.1-8.3z"/><defs><path id="SVGID_7_" d="M244.7 261.7c-7.5-.6-12.1 4.5-14.6 8.9 2.5 7.2 6.6 12.7 13.6 12.3s11.2-5.9 14.1-12.9c-2.5-3.7-6.5-7.7-13.1-8.3z"/></defs><clipPath id="SVGID_8_"><use xlink:href="#SVGID_7_" overflow="visible"/></clipPath><path class="st10" d="M238.8 258.8s-8.1 14.8 10.2 22.6-4.2 12.3-6.8 10.9-18.5-16.6-18.5-16.6l-2.4-9.8 17.5-7.1z"/><path class="st11" d="M226.5 239s-1 18.6 3.5 31.6c2.5-4.3 7.1-9.5 14.6-8.9 6.6.6 10.6 4.6 13 8.3 5.3-13 5.2-31 5.2-31-20.8 14.4-36.3 0-36.3 0z"/><path class="st12" d="M202.5 268.4c17.6.4 11 44.7 10.6 59.1-.4 14.5 2.6 27.3 2.9 36.7.2 9.4 5.1 37.7-16.1 37.5-21.2-.2-8.2-55.3-8-66.7-.1 0-7-67.1 10.6-66.6zm59.6 0c-17.6.4-11 44.7-10.6 59.1.4 14.5-2.6 27.3-2.9 36.7-.2 9.4-5.1 37.7 16.1 37.5s8.2-55.3 8-66.7c.1 0 7-67.1-10.6-66.6z"/><g><defs><path id="SVGID_9_" d="M202.5 268.4c17.6.4 11 44.7 10.6 59.1s2.6 27.3 2.9 36.7 5.1 37.7-16.1 37.5-8.2-55.3-8-66.7c-.1 0-7-67.1 10.6-66.6zm59.6 0c-17.6.4-11 44.7-10.6 59.1s-2.6 27.3-2.9 36.7-5.1 37.7 16.1 37.5 8.2-55.3 8-66.7c.1 0 7-67.1-10.6-66.6z"/></defs><clipPath id="SVGID_10_"><use xlink:href="#SVGID_9_" overflow="visible"/></clipPath><path class="st13" d="M214.3 319.8l-17.5 9.8s-.3 25.6-2.7 37.8-.9 29.4 7.7 35.9-17.1 3-17.1 3-18.4-15.5-17.9-20.1c.5-4.6-3.5-60.4-2.4-67.7s9.3-52.5 9.3-52.5l21.8-4.3 6.6 2.6c-2.6 11.2-4.1 22.5-4.4 34-.3 16.9 16.6 13 16.6 13v8.5zm64 0l-18.5 9.8s-.8 25.6-3.2 37.8-1.2 29.4 7.4 35.9-17.2 3-17.2 3-18.5-15.5-17.9-20.1c.5-4.6-3.5-60.4-2.4-67.7s9.2-52.5 9.2-52.5l21.8-4.3 6.6 2.6c-2 11.2-3.1 22.6-3.5 34-.3 16.9 17.6 13 17.6 13l.1 8.5z"/></g><path class="st14" d="M352.8 251.6s1.2-14.3 12.4-11.2c0 0 18.6 17.7 0 37.1s-37.3 25.5-60.4 31-22.2 11.4-44 13.9-26.3-7.5-26.1-16.3c.2-8.8 8.1-19.8 27.8-19.4s17.5 7.8 37.5 4.5 40.8-13.6 47.7-18.9 13-12.5 5.1-20.7zm-214.5 3.7s-22.4 4.9-20.4 23.5 18 22.4 36.6 26.7 15.1 13 37.4 15.1 31.2-8 29-21.2-24.3-12.4-49.8-12.6-32.8-11.8-32.8-11.8v-19.7z"/><g><defs><path id="SVGID_11_" d="M352.8 251.6s1.2-14.3 12.4-11.2c0 0 18.6 17.7 0 37.1s-37.3 25.5-60.4 31-22.2 11.4-44 13.9-26.3-7.5-26.1-16.3 8.1-19.8 27.8-19.4 17.5 7.8 37.5 4.5 40.8-13.6 47.7-18.9 13-12.5 5.1-20.7zm-214.5 3.7s-22.4 4.9-20.4 23.5 18 22.4 36.6 26.7 15.1 13 37.4 15.1 31.2-8 29-21.2-24.3-12.4-49.8-12.6-32.8-11.8-32.8-11.8v-19.7z"/></defs><clipPath id="SVGID_12_"><use xlink:href="#SVGID_11_" overflow="visible"/></clipPath><path class="st15" d="M137.6 273.8s-8.2 10.9 3.5 16.9c11.7 6 25.8 8.7 31.5 13.9 5.7 5.2 33.4 11.1 51.7 0s5.7 25.6 5.7 25.6l-67.4-1.4s-41.3-20.4-41.3-21.7-8.5-43.5-8.5-43.5 32.1-17.1 32.9-18.1 18.5-2.1 18.5-2.1l-26.6 30.4zm95.7 26.5s.1 12.3 21.6 11.5c21.5-.8 30.4-7 30.4-7s14.9 2.2 47.3-10.9 43.2-27.2 43.2-27.2l-6.5 24.3-79.1 35.1h-40s-8.7-2.9-11.4-3.4-8.7-6.8-8.7-6.8l3.2-15.6z"/></g><path class="st16" d="M142.3 74.1h3v72h-3v-72zm25 25h3v25h-3v-25zm200-36h3v56h-3v-56zm-26 39h3v29h-3v-29z"/><g><path class="st17" d="M8.9 578.1c.4-1.3 1.3-1.6 2.3-1 5.8 3.3 12.7 5.7 17.4 6 4 0 6.6-1.9 6.6-4.8 0-7.4-35.3-7-35.3-34.4 0-16.8 12.7-28 31.8-28 8.9 0 20.2 3.6 28.1 9 .9.4 1.3 1.4 1 2.3L53 545c-.4 1.3-1.3 1.6-2.3 1-6.1-3.5-13.3-6.1-17.7-6.5-3.9 0-6.4 1.8-6.4 4.6 0 7.4 35.5 6.9 35.5 34.5 0 16.7-12.9 27.9-32.2 27.9-10.5 0-21.6-3.3-27.9-8.3-1-.8-1.4-1.6-1-2.3l7.9-17.8zM132.5 535.5c1 0 1.8.9 1.9 1.9v65.4c-.1 1-.9 1.7-1.9 1.8h-14.2c-1-.1-1.8-.9-2-1.9l-1.9-4.6c-4.6 5-11.9 8.3-20.1 8.3-16.3 0-26-10.4-26-27.5v-41.5c0-1 .9-1.8 1.9-1.9h22.1c1 0 1.9.8 1.9 1.9v38.4c0 4.3 2.6 7.1 6.6 7.1 3-.1 5.8-1.6 7.6-4v-41.5c0-1 .9-1.8 1.9-1.9h22.2zM210.9 535.5h-13.3c-1.2.1-2.3.8-2.9 1.9l-2.3 3.5c-3.3-4.5-10.9-7.1-20.6-7.1-19.2 0-30.5 13.2-30.5 35.4 0 19.8 12.2 33 30.5 33 7 0 13.1-2.6 15.1-6.6v3.6c0 7.1-4.8 11.3-12.7 11.3-8.4 0-16.7-2.6-22.1-7-.1-.1-.3-.1-.4-.2-.7-.2-1.3.3-1.5.9l-6.4 15.6c-.2.8.1 1.7.8 2.1 6.1 5 17.2 7.9 29.6 7.9 21.3 0 38.5-12.7 38.5-31.6v-60.9c.1-1.2-.8-1.9-1.8-1.8zM187 575.4c-1.4 3.6-4.9 5.8-8.7 5.7-6.3 0-9.9-4.5-9.9-12s3.6-11.9 9.9-11.9c3.8-.1 7.3 2.1 8.7 5.7v12.5zM254.2 533.7c-10 0-20.1 2.6-27.2 7.1-.7.5-1 1.5-.6 2.4l7.1 15c.5.9 1.3 1.4 1.9 1 4.6-2.5 9.8-3.9 15.1-4 5.8 0 9.7 3.5 9.7 8.9v5.3c-2.5-4-9-6.6-16.3-6.6-14.2 0-23.7 8.2-23.8 20.5-.1 13.8 9.4 23.1 23.8 23.1 9.2 0 17.5-2.8 21.6-7.1l.9 3.4c.1 1 1 1.9 2 1.9H284c1 0 1.8-.9 1.9-1.9v-32.5c0-25.1-10-36.5-31.7-36.5zm5.9 51.1c-1.8 2-4.3 3.1-6.9 3.1-3.1 0-5.3-1.8-5.3-4.6s2.1-4.6 5.3-4.6c2.6 0 5.1 1.2 6.9 3.1v3zM334.7 535.5c.9 0 1.7.7 1.8 1.7V553.6c0 .9-.7 1.7-1.7 1.8h-3.4c-4.8 0-9 2.1-10.7 5.3v42c0 1-.9 1.8-1.9 1.9h-22.1c-1 0-1.8-.9-1.9-1.9v-65.3c.1-1 .9-1.7 1.9-1.8H311c1 .1 1.8.9 2 1.9l1.9 5.5c4.1-4.9 10.2-7.6 16.6-7.5h3.2zM374.1 578.1c.4-1.3 1.3-1.6 2.3-1 5.8 3.3 12.7 5.7 17.4 6 4 0 6.6-1.9 6.6-4.8 0-7.4-35.3-7-35.3-34.4 0-16.8 12.7-28 31.7-28 8.9 0 20.2 3.6 28.1 9 .9.4 1.3 1.4 1 2.3l-7.9 17.7c-.4 1.3-1.3 1.6-2.3 1-6.1-3.5-13.3-6.1-17.7-6.5-3.9 0-6.4 1.8-6.4 4.6 0 7.4 35.5 6.9 35.5 34.5 0 16.7-12.9 27.9-32.2 27.9-10.5 0-21.6-3.3-27.9-8.3-1-.8-1.4-1.6-1-2.3l8.1-17.7zM441.3 578.1c.4-1.3 1.3-1.6 2.3-1 5.8 3.3 12.7 5.7 17.4 6 4 0 6.6-1.9 6.6-4.8 0-7.4-35.3-7-35.3-34.4 0-16.8 12.7-28 31.7-28 8.9 0 20.2 3.6 28.1 9 .9.4 1.3 1.4 1 2.3l-7.9 17.7c-.4 1.3-1.3 1.6-2.3 1-6.1-3.5-13.3-6.1-17.7-6.5-3.9 0-6.4 1.8-6.4 4.6 0 7.4 35.5 6.9 35.5 34.5 0 16.7-12.9 27.9-32.2 27.9-10.5 0-21.6-3.3-27.9-8.3-1-.8-1.4-1.6-1-2.3l8.1-17.7z"/></g></svg>