<svg xmlns="http://www.w3.org/2000/svg" xmlns:xlink="http://www.w3.org/1999/xlink" viewBox="0 0 498.81 619.31"><defs><style>.cls-1{fill:#c8eeee;}.cls-2{fill:azure;}.cls-3{fill:none;}.cls-4{fill:#ff8aff;}.cls-5{fill:#cdeeee;}.cls-6{fill:#ddf5f5;}.cls-10,.cls-7{fill:#d0f5f5;}.cls-12,.cls-7{opacity:0.35;mix-blend-mode:multiply;}.cls-8{isolation:isolate;}.cls-9{fill:#2dcc9f;}.cls-11{clip-path:url(#clip-path);}.cls-13{fill:#9deeee;}.cls-14{clip-path:url(#clip-path-2);}.cls-15{clip-path:url(#clip-path-3);}.cls-16{fill:#94b3ca;}.cls-17{clip-path:url(#clip-path-4);}.cls-18{fill:#733335;}.cls-19{clip-path:url(#clip-path-5);}.cls-20{clip-path:url(#clip-path-6);}.cls-21{fill:#c2f5f5;}.cls-22{fill:#249e7c;}.cls-23{font-size:110.24px;fill:#1a382f;font-family:FatFrank;}</style><clipPath id="clip-path"><polygon class="cls-1" points="346.94 165.54 378.49 139.05 378.49 287.12 347.75 351.74 331.74 211.25 346.94 165.54"/></clipPath><clipPath id="clip-path-2"><rect class="cls-2" x="140.95" y="165.89" width="207.14" height="185.86"/></clipPath><clipPath id="clip-path-3"><polygon class="cls-3" points="376.55 141.09 183.83 141.09 141.45 167.09 141.49 167.09 141.49 353.09 348.49 353.09 348.49 350.88 378.49 287.12 378.49 139.05 376.55 141.09"/></clipPath><clipPath id="clip-path-4"><path class="cls-4" d="M246.88,261.69c-7.52-.65-12.13,4.54-14.64,8.88,2.49,7.22,6.65,12.72,13.6,12.34S257.05,277,259.91,270C257.5,266.27,253.44,262.26,246.88,261.69Z"/></clipPath><clipPath id="clip-path-5"><path class="cls-5" d="M204.66,268.36c17.57,0.41,11,44.66,10.58,59.14s2.65,27.33,2.86,36.71,5.1,37.73-16.11,37.53-8.16-55.27-8-66.69C194,335,187.1,267.95,204.66,268.36Zm59.64,0c-17.57.41-11,44.66-10.58,59.14s-2.65,27.33-2.86,36.71-5.1,37.73,16.11,37.53,8.16-55.27,8-66.69C274.93,335,281.87,267.95,264.3,268.36Z"/></clipPath><clipPath id="clip-path-6"><path class="cls-6" d="M354.95,251.63s1.22-14.28,12.44-11.22c0,0,18.56,17.74,0,37.12S330.06,303,307,308.53,284.79,319.92,263,322.39s-26.31-7.53-26.11-16.3,8.09-19.78,27.81-19.38,17.47,7.75,37.46,4.49,40.79-13.56,47.72-18.92S362.9,259.79,354.95,251.63Zm-214.46,3.63s-22.43,4.94-20.39,23.5,18,22.43,36.56,26.72,15.13,13.05,37.44,15.09,31.25-8,29-21.21-24.27-12.44-49.77-12.64S140.49,275,140.49,275V255.26Z"/></clipPath><symbol id="New_Symbol" data-name="New Symbol" viewBox="0 0 3.26 3.26"><circle class="cls-7" cx="1.63" cy="1.63" r="1.63"/><circle class="cls-7" cx="1.63" cy="1.63" r="1.46"/><circle class="cls-7" cx="1.63" cy="1.63" r="1.46"/></symbol></defs><title>SugarCSS</title><g class="cls-8"><g id="Layer_2" data-name="Layer 2"><circle class="cls-9" cx="249.4" cy="232.28" r="232.28"/><polygon class="cls-10" points="140.77 166.2 183.83 140.09 377.99 140.09 361.68 185.05 218.1 198.29 140.77 166.2"/><polygon class="cls-1" points="346.94 165.54 378.49 139.05 378.49 287.12 347.75 351.74 331.74 211.25 346.94 165.54"/><g class="cls-11"><g class="cls-12"><path class="cls-13" d="M274.47,322.77S360,303,372.28,274.47s-21.62,6.9-21.62,6.9L271,307.11Z"/></g><g class="cls-12"><path class="cls-13" d="M199.73,320.83s-11.58,3.41-27.81-3.93-35.81-10.61-35.81-10.61l-2.86-10.61,10.06-5,39.29,15.48Z"/></g></g><rect class="cls-2" x="140.95" y="165.89" width="207.14" height="185.86"/><g class="cls-14"><g class="cls-12"><path class="cls-13" d="M274.47,322.77S360,303,372.28,274.47s-21.62,6.9-21.62,6.9L271,307.11Z"/></g><g class="cls-12"><path class="cls-13" d="M199.73,320.83s-11.58,3.41-27.81-3.93-35.81-10.61-35.81-10.61l-2.86-10.61,10.06-5,39.29,15.48Z"/></g></g><g class="cls-15"><use width="3.26" height="3.26" transform="translate(161.88 202.29) scale(1.37)" xlink:href="#New_Symbol"/><use width="3.26" height="3.26" transform="translate(164.25 186.95) scale(1.37)" xlink:href="#New_Symbol"/><use width="3.26" height="3.26" transform="translate(184.36 149.42) scale(1.37)" xlink:href="#New_Symbol"/><use width="3.26" height="3.26" transform="translate(175.75 165.71) scale(1.37)" xlink:href="#New_Symbol"/><use width="3.26" height="3.26" transform="translate(112.2 182.12) scale(1.37)" xlink:href="#New_Symbol"/><use width="3.26" height="3.26" transform="translate(153.06 123.13) scale(1.37)" xlink:href="#New_Symbol"/><use width="3.26" height="3.26" transform="translate(163.37 143.9) scale(1.37)" xlink:href="#New_Symbol"/><use width="3.26" height="3.26" transform="translate(118.5 168.1) scale(1.37)" xlink:href="#New_Symbol"/><use width="3.26" height="3.26" transform="translate(186.56 103.82) scale(1.37)" xlink:href="#New_Symbol"/><use width="3.26" height="3.26" transform="translate(118.42 191.83) scale(1.37)" xlink:href="#New_Symbol"/><use width="3.26" height="3.26" transform="translate(195.54 118.76) scale(1.37)" xlink:href="#New_Symbol"/><use width="3.26" height="3.26" transform="translate(174.62 194.43) scale(1.37)" xlink:href="#New_Symbol"/><use width="3.26" height="3.26" transform="translate(142.26 210.7) scale(1.37)" xlink:href="#New_Symbol"/><use width="3.26" height="3.26" transform="translate(244.84 101.17) scale(1.37)" xlink:href="#New_Symbol"/><use width="3.26" height="3.26" transform="translate(116.29 253.59) scale(1.37)" xlink:href="#New_Symbol"/><use width="3.26" height="3.26" transform="translate(258.98 116.48) scale(1.37)" xlink:href="#New_Symbol"/><use width="3.26" height="3.26" transform="translate(172.82 244.2) scale(1.37)" xlink:href="#New_Symbol"/><use width="3.26" height="3.26" transform="translate(251.52 154.87) scale(1.37)" xlink:href="#New_Symbol"/><use width="3.26" height="3.26" transform="translate(250.87 166.86) scale(1.37)" xlink:href="#New_Symbol"/><use width="3.26" height="3.26" transform="translate(191.23 213.62) scale(1.37)" xlink:href="#New_Symbol"/><use width="3.26" height="3.26" transform="translate(230.62 132.98) scale(1.37)" xlink:href="#New_Symbol"/><use width="3.26" height="3.26" transform="translate(232.09 123.75) scale(1.37)" xlink:href="#New_Symbol"/><use width="3.26" height="3.26" transform="translate(231.56 145.84) scale(1.37)" xlink:href="#New_Symbol"/><use width="3.26" height="3.26" transform="translate(222.95 142.5) scale(1.37)" xlink:href="#New_Symbol"/><use width="3.26" height="3.26" transform="translate(226.47 154.12) scale(1.37)" xlink:href="#New_Symbol"/><use width="3.26" height="3.26" transform="translate(211.9 144.69) scale(1.37)" xlink:href="#New_Symbol"/><use width="3.26" height="3.26" transform="translate(196.23 153.73) scale(1.37)" xlink:href="#New_Symbol"/><use width="3.26" height="3.26" transform="translate(170.32 157.12) scale(1.37)" xlink:href="#New_Symbol"/><use width="3.26" height="3.26" transform="translate(160.29 162.04) scale(1.37)" xlink:href="#New_Symbol"/><use width="3.26" height="3.26" transform="translate(146.59 159.18) scale(1.37)" xlink:href="#New_Symbol"/><use width="3.26" height="3.26" transform="translate(140.15 151.02) scale(1.37)" xlink:href="#New_Symbol"/><use width="3.26" height="3.26" transform="translate(137.15 160.67) scale(1.37)" xlink:href="#New_Symbol"/><use width="3.26" height="3.26" transform="translate(137.5 175.52) scale(1.37)" xlink:href="#New_Symbol"/><use width="3.26" height="3.26" transform="translate(139.89 186.32) scale(1.37)" xlink:href="#New_Symbol"/><use width="3.26" height="3.26" transform="translate(193.34 183.67) scale(1.37)" xlink:href="#New_Symbol"/><use width="3.26" height="3.26" transform="translate(232.22 167.08) scale(1.37)" xlink:href="#New_Symbol"/><use width="3.26" height="3.26" transform="translate(255.12 135.11) scale(1.37)" xlink:href="#New_Symbol"/><use width="3.26" height="3.26" transform="translate(274.95 119.12) scale(1.37)" xlink:href="#New_Symbol"/><use width="3.26" height="3.26" transform="translate(291.08 111.29) scale(1.37)" xlink:href="#New_Symbol"/><use width="3.26" height="3.26" transform="translate(322.4 108.06) scale(1.37)" xlink:href="#New_Symbol"/><use width="3.26" height="3.26" transform="translate(367.8 123.64) scale(1.37)" xlink:href="#New_Symbol"/><use width="3.26" height="3.26" transform="translate(373.92 132.9) scale(1.37)" xlink:href="#New_Symbol"/><use width="3.26" height="3.26" transform="translate(327.85 147.91) scale(1.37)" xlink:href="#New_Symbol"/><use width="3.26" height="3.26" transform="translate(290.23 156.56) scale(1.37)" xlink:href="#New_Symbol"/><use width="3.26" height="3.26" transform="translate(278.98 151.71) scale(1.37)" xlink:href="#New_Symbol"/><use width="3.26" height="3.26" transform="translate(280.11 161.48) scale(1.37)" xlink:href="#New_Symbol"/><use width="3.26" height="3.26" transform="translate(361.19 134.48) scale(1.37)" xlink:href="#New_Symbol"/><use width="3.26" height="3.26" transform="translate(354.35 123.78) scale(1.37)" xlink:href="#New_Symbol"/><use width="3.26" height="3.26" transform="translate(319.23 116.43) scale(1.37)" xlink:href="#New_Symbol"/><use width="3.26" height="3.26" transform="translate(307.06 113.48) scale(1.37)" xlink:href="#New_Symbol"/><use width="3.26" height="3.26" transform="translate(298.56 130.43) scale(1.37)" xlink:href="#New_Symbol"/><use width="3.26" height="3.26" transform="translate(300.28 122.53) scale(1.37)" xlink:href="#New_Symbol"/><use width="3.26" height="3.26" transform="translate(345.16 140.14) scale(1.37)" xlink:href="#New_Symbol"/><use width="3.26" height="3.26" transform="translate(349.14 151.3) scale(1.37)" xlink:href="#New_Symbol"/><use width="3.26" height="3.26" transform="translate(334.4 166.44) scale(1.37)" xlink:href="#New_Symbol"/><use width="3.26" height="3.26" transform="translate(276.79 184.73) scale(1.37)" xlink:href="#New_Symbol"/><use width="3.26" height="3.26" transform="translate(253.1 189.26) scale(1.37)" xlink:href="#New_Symbol"/><use width="3.26" height="3.26" transform="translate(238.93 191.73) scale(1.37)" xlink:href="#New_Symbol"/><use width="3.26" height="3.26" transform="translate(222.01 220.03) scale(1.37)" xlink:href="#New_Symbol"/><use width="3.26" height="3.26" transform="translate(207.66 223.49) scale(1.37)" xlink:href="#New_Symbol"/><use width="3.26" height="3.26" transform="translate(261.75 229.03) scale(1.37)" xlink:href="#New_Symbol"/><use width="3.26" height="3.26" transform="translate(276.36 218.06) scale(1.37)" xlink:href="#New_Symbol"/><use width="3.26" height="3.26" transform="translate(295.04 194.45) scale(1.37)" xlink:href="#New_Symbol"/><use width="3.26" height="3.26" transform="translate(368.86 172.55) scale(1.37)" xlink:href="#New_Symbol"/><use width="3.26" height="3.26" transform="translate(383.09 159.78) scale(1.37)" xlink:href="#New_Symbol"/><use width="3.26" height="3.26" transform="translate(386.41 168) scale(1.37)" xlink:href="#New_Symbol"/><use width="3.26" height="3.26" transform="translate(379.15 177.54) scale(1.37)" xlink:href="#New_Symbol"/><use width="3.26" height="3.26" transform="translate(352.8 211.02) scale(1.37)" xlink:href="#New_Symbol"/><use width="3.26" height="3.26" transform="translate(338.07 222.82) scale(1.37)" xlink:href="#New_Symbol"/><use width="3.26" height="3.26" transform="translate(325.04 231.48) scale(1.37)" xlink:href="#New_Symbol"/><use width="3.26" height="3.26" transform="translate(306.09 246.68) scale(1.37)" xlink:href="#New_Symbol"/><use width="3.26" height="3.26" transform="translate(296.96 260.44) scale(1.37)" xlink:href="#New_Symbol"/><use width="3.26" height="3.26" transform="translate(278.5 278.68) scale(1.37)" xlink:href="#New_Symbol"/><use width="3.26" height="3.26" transform="translate(275.25 292.91) scale(1.37)" xlink:href="#New_Symbol"/><use width="3.26" height="3.26" transform="translate(275.68 313.21) scale(1.37)" xlink:href="#New_Symbol"/><use width="3.26" height="3.26" transform="translate(303.86 334.99) scale(1.37)" xlink:href="#New_Symbol"/><use width="3.26" height="3.26" transform="translate(313.27 348.16) scale(1.37)" xlink:href="#New_Symbol"/><use width="3.26" height="3.26" transform="translate(326.82 350.18) scale(1.37)" xlink:href="#New_Symbol"/><use width="3.26" height="3.26" transform="translate(352.38 336.52) scale(1.37)" xlink:href="#New_Symbol"/><use width="3.26" height="3.26" transform="translate(360.5 298.37) scale(1.37)" xlink:href="#New_Symbol"/><use width="3.26" height="3.26" transform="translate(338.81 266.58) scale(1.37)" xlink:href="#New_Symbol"/><use width="3.26" height="3.26" transform="translate(315.66 254.91) scale(1.37)" xlink:href="#New_Symbol"/><use width="3.26" height="3.26" transform="translate(287.6 254.66) scale(1.37)" xlink:href="#New_Symbol"/><use width="3.26" height="3.26" transform="translate(276.89 253.24) scale(1.37)" xlink:href="#New_Symbol"/><use width="3.26" height="3.26" transform="translate(286.08 236.26) scale(1.37)" xlink:href="#New_Symbol"/><use width="3.26" height="3.26" transform="translate(305.26 215.67) scale(1.37)" xlink:href="#New_Symbol"/><use width="3.26" height="3.26" transform="translate(318.09 210.12) scale(1.37)" xlink:href="#New_Symbol"/><use width="3.26" height="3.26" transform="translate(339.9 188.12) scale(1.37)" xlink:href="#New_Symbol"/><use width="3.26" height="3.26" transform="translate(353.08 185.61) scale(1.37)" xlink:href="#New_Symbol"/><use width="3.26" height="3.26" transform="translate(347.77 178.87) scale(1.37)" xlink:href="#New_Symbol"/><use width="3.26" height="3.26" transform="translate(342.63 199.78) scale(1.37)" xlink:href="#New_Symbol"/><use width="3.26" height="3.26" transform="translate(328.38 194.17) scale(1.37)" xlink:href="#New_Symbol"/><use width="3.26" height="3.26" transform="translate(313.73 185.66) scale(1.37)" xlink:href="#New_Symbol"/><use width="3.26" height="3.26" transform="translate(304.81 179.94) scale(1.37)" xlink:href="#New_Symbol"/><use width="3.26" height="3.26" transform="translate(314.03 173.3) scale(1.37)" xlink:href="#New_Symbol"/><use width="3.26" height="3.26" transform="translate(341.37 156.68) scale(1.37)" xlink:href="#New_Symbol"/><use width="3.26" height="3.26" transform="translate(337.84 145.49) scale(1.37)" xlink:href="#New_Symbol"/><use width="3.26" height="3.26" transform="translate(318.34 130.26) scale(1.37)" xlink:href="#New_Symbol"/><use width="3.26" height="3.26" transform="translate(301.69 141.97) scale(1.37)" xlink:href="#New_Symbol"/><use width="3.26" height="3.26" transform="translate(243.65 136.03) scale(1.37)" xlink:href="#New_Symbol"/><use width="3.26" height="3.26" transform="translate(192.77 134.08) scale(1.37)" xlink:href="#New_Symbol"/><use width="3.26" height="3.26" transform="translate(176.15 135.81) scale(1.37)" xlink:href="#New_Symbol"/><use width="3.26" height="3.26" transform="translate(176.49 125.68) scale(1.37)" xlink:href="#New_Symbol"/><use width="3.26" height="3.26" transform="translate(167.69 124.71) scale(1.37)" xlink:href="#New_Symbol"/><use width="3.26" height="3.26" transform="translate(163.93 133.51) scale(1.37)" xlink:href="#New_Symbol"/><use width="3.26" height="3.26" transform="translate(152.2 199.67) scale(1.37)" xlink:href="#New_Symbol"/><use width="3.26" height="3.26" transform="translate(144.4 237.61) scale(1.37)" xlink:href="#New_Symbol"/><use width="3.26" height="3.26" transform="translate(143.56 248.88) scale(1.37)" xlink:href="#New_Symbol"/><use width="3.26" height="3.26" transform="translate(140.04 263.11) scale(1.37)" xlink:href="#New_Symbol"/><use width="3.26" height="3.26" transform="translate(148.85 268.38) scale(1.37)" xlink:href="#New_Symbol"/><use width="3.26" height="3.26" transform="translate(160.11 296.36) scale(1.37)" xlink:href="#New_Symbol"/><use width="3.26" height="3.26" transform="translate(164.49 321.27) scale(1.37)" xlink:href="#New_Symbol"/><use width="3.26" height="3.26" transform="translate(160.29 340.2) scale(1.37)" xlink:href="#New_Symbol"/><use width="3.26" height="3.26" transform="translate(156.36 354.69) scale(1.37)" xlink:href="#New_Symbol"/><use width="3.26" height="3.26" transform="translate(147.25 355.13) scale(1.37)" xlink:href="#New_Symbol"/><use width="3.26" height="3.26" transform="translate(133.41 327.14) scale(1.37)" xlink:href="#New_Symbol"/><use width="3.26" height="3.26" transform="translate(140.95 296.56) scale(1.37)" xlink:href="#New_Symbol"/><use width="3.26" height="3.26" transform="translate(177.34 262.43) scale(1.37)" xlink:href="#New_Symbol"/><use width="3.26" height="3.26" transform="translate(196.14 246.79) scale(1.37)" xlink:href="#New_Symbol"/><use width="3.26" height="3.26" transform="translate(200.61 260.26) scale(1.37)" xlink:href="#New_Symbol"/><use width="3.26" height="3.26" transform="translate(201.11 307.64) scale(1.37)" xlink:href="#New_Symbol"/><use width="3.26" height="3.26" transform="translate(203.41 326.21) scale(1.37)" xlink:href="#New_Symbol"/><use width="3.26" height="3.26" transform="translate(205.2 338.63) scale(1.37)" xlink:href="#New_Symbol"/><use width="3.26" height="3.26" transform="translate(214.67 343.23) scale(1.37)" xlink:href="#New_Symbol"/><use width="3.26" height="3.26" transform="translate(250.81 350.53) scale(1.37)" xlink:href="#New_Symbol"/><use width="3.26" height="3.26" transform="translate(266.57 359.05) scale(1.37)" xlink:href="#New_Symbol"/><use width="3.26" height="3.26" transform="translate(264.43 350.96) scale(1.37)" xlink:href="#New_Symbol"/><use width="3.26" height="3.26" transform="translate(238.21 331.66) scale(1.37)" xlink:href="#New_Symbol"/><use width="3.26" height="3.26" transform="translate(227.19 316.09) scale(1.37)" xlink:href="#New_Symbol"/><use width="3.26" height="3.26" transform="translate(229 307.18) scale(1.37)" xlink:href="#New_Symbol"/><use width="3.26" height="3.26" transform="translate(217.53 302.52) scale(1.37)" xlink:href="#New_Symbol"/><use width="3.26" height="3.26" transform="translate(209.13 296.8) scale(1.37)" xlink:href="#New_Symbol"/><use width="3.26" height="3.26" transform="translate(198.2 286.59) scale(1.37)" xlink:href="#New_Symbol"/><use width="3.26" height="3.26" transform="translate(211.83 283.78) scale(1.37)" xlink:href="#New_Symbol"/><use width="3.26" height="3.26" transform="translate(253.9 292.37) scale(1.37)" xlink:href="#New_Symbol"/><use width="3.26" height="3.26" transform="translate(266.27 300.7) scale(1.37)" xlink:href="#New_Symbol"/><use width="3.26" height="3.26" transform="translate(290.57 311.82) scale(1.37)" xlink:href="#New_Symbol"/><use width="3.26" height="3.26" transform="translate(295.28 322.79) scale(1.37)" xlink:href="#New_Symbol"/><use width="3.26" height="3.26" transform="translate(287.93 337.31) scale(1.37)" xlink:href="#New_Symbol"/><use width="3.26" height="3.26" transform="translate(287.97 349.12) scale(1.37)" xlink:href="#New_Symbol"/><use width="3.26" height="3.26" transform="translate(300.25 347.49) scale(1.37)" xlink:href="#New_Symbol"/><use width="3.26" height="3.26" transform="translate(325.11 335.44) scale(1.37)" xlink:href="#New_Symbol"/><use width="3.26" height="3.26" transform="translate(357.22 322.53) scale(1.37)" xlink:href="#New_Symbol"/><use width="3.26" height="3.26" transform="translate(368.68 310.55) scale(1.37)" xlink:href="#New_Symbol"/><use width="3.26" height="3.26" transform="translate(377.5 296.69) scale(1.37)" xlink:href="#New_Symbol"/><use width="3.26" height="3.26" transform="translate(379.81 286.43) scale(1.37)" xlink:href="#New_Symbol"/><use width="3.26" height="3.26" transform="translate(387.45 281.25) scale(1.37)" xlink:href="#New_Symbol"/><use width="3.26" height="3.26" transform="translate(381.8 270.41) scale(1.37)" xlink:href="#New_Symbol"/><use width="3.26" height="3.26" transform="translate(378.64 253.78) scale(1.37)" xlink:href="#New_Symbol"/><use width="3.26" height="3.26" transform="translate(384.89 235.89) scale(1.37)" xlink:href="#New_Symbol"/><use width="3.26" height="3.26" transform="translate(376.4 239.52) scale(1.37)" xlink:href="#New_Symbol"/><use width="3.26" height="3.26" transform="translate(357.23 274.25) scale(1.37)" xlink:href="#New_Symbol"/><use width="3.26" height="3.26" transform="translate(348.52 303.13) scale(1.37)" xlink:href="#New_Symbol"/><use width="3.26" height="3.26" transform="translate(345.56 317.39) scale(1.37)" xlink:href="#New_Symbol"/><use width="3.26" height="3.26" transform="translate(342.07 331.81) scale(1.37)" xlink:href="#New_Symbol"/><use width="3.26" height="3.26" transform="translate(335.92 325.89) scale(1.37)" xlink:href="#New_Symbol"/><use width="3.26" height="3.26" transform="translate(332.5 309.98) scale(1.37)" xlink:href="#New_Symbol"/><use width="3.26" height="3.26" transform="translate(327.22 301.13) scale(1.37)" xlink:href="#New_Symbol"/><use width="3.26" height="3.26" transform="translate(332.9 294.66) scale(1.37)" xlink:href="#New_Symbol"/><use width="3.26" height="3.26" transform="translate(319.18 313.34) scale(1.37)" xlink:href="#New_Symbol"/><use width="3.26" height="3.26" transform="translate(316.98 305.68) scale(1.37)" xlink:href="#New_Symbol"/><use width="3.26" height="3.26" transform="translate(307.87 297.8) scale(1.37)" xlink:href="#New_Symbol"/><use width="3.26" height="3.26" transform="translate(315.68 283.51) scale(1.37)" xlink:href="#New_Symbol"/><use width="3.26" height="3.26" transform="translate(297.42 284.5) scale(1.37)" xlink:href="#New_Symbol"/><use width="3.26" height="3.26" transform="translate(305.84 286.19) scale(1.37)" xlink:href="#New_Symbol"/><use width="3.26" height="3.26" transform="translate(306.97 276.42) scale(1.37)" xlink:href="#New_Symbol"/><use width="3.26" height="3.26" transform="translate(321.03 268.05) scale(1.37)" xlink:href="#New_Symbol"/><use width="3.26" height="3.26" transform="translate(344.72 248) scale(1.37)" xlink:href="#New_Symbol"/><use width="3.26" height="3.26" transform="translate(355.2 239.69) scale(1.37)" xlink:href="#New_Symbol"/><use width="3.26" height="3.26" transform="translate(362.44 230.79) scale(1.37)" xlink:href="#New_Symbol"/><use width="3.26" height="3.26" transform="translate(367.74 222.19) scale(1.37)" xlink:href="#New_Symbol"/><use width="3.26" height="3.26" transform="translate(377.67 221.81) scale(1.37)" xlink:href="#New_Symbol"/><use width="3.26" height="3.26" transform="translate(380.46 212.53) scale(1.37)" xlink:href="#New_Symbol"/><use width="3.26" height="3.26" transform="translate(367.15 202.64) scale(1.37)" xlink:href="#New_Symbol"/><use width="3.26" height="3.26" transform="translate(334.95 202.88) scale(1.37)" xlink:href="#New_Symbol"/><use width="3.26" height="3.26" transform="translate(318.07 197.03) scale(1.37)" xlink:href="#New_Symbol"/><use width="3.26" height="3.26" transform="translate(280.57 198.66) scale(1.37)" xlink:href="#New_Symbol"/><use width="3.26" height="3.26" transform="translate(260.34 199.47) scale(1.37)" xlink:href="#New_Symbol"/><use width="3.26" height="3.26" transform="translate(228.76 198.83) scale(1.37)" xlink:href="#New_Symbol"/><use width="3.26" height="3.26" transform="translate(217.65 210.05) scale(1.37)" xlink:href="#New_Symbol"/><use width="3.26" height="3.26" transform="translate(214.33 228.1) scale(1.37)" xlink:href="#New_Symbol"/><use width="3.26" height="3.26" transform="translate(218.77 237.9) scale(1.37)" xlink:href="#New_Symbol"/><use width="3.26" height="3.26" transform="translate(237.32 238.6) scale(1.37)" xlink:href="#New_Symbol"/><use width="3.26" height="3.26" transform="translate(247.52 227.44) scale(1.37)" xlink:href="#New_Symbol"/><use width="3.26" height="3.26" transform="translate(243.54 211.64) scale(1.37)" xlink:href="#New_Symbol"/><use width="3.26" height="3.26" transform="translate(232.85 207.87) scale(1.37)" xlink:href="#New_Symbol"/><use width="3.26" height="3.26" transform="translate(203.39 208.32) scale(1.37)" xlink:href="#New_Symbol"/><use width="3.26" height="3.26" transform="translate(174.91 218.25) scale(1.37)" xlink:href="#New_Symbol"/><use width="3.26" height="3.26" transform="translate(149.68 224.68) scale(1.37)" xlink:href="#New_Symbol"/><use width="3.26" height="3.26" transform="translate(124.39 229.3) scale(1.37)" xlink:href="#New_Symbol"/><use width="3.26" height="3.26" transform="translate(119.53 218.88) scale(1.37)" xlink:href="#New_Symbol"/><use width="3.26" height="3.26" transform="translate(125.05 199.77) scale(1.37)" xlink:href="#New_Symbol"/><use width="3.26" height="3.26" transform="translate(152.54 175.26) scale(1.37)" xlink:href="#New_Symbol"/><use width="3.26" height="3.26" transform="translate(189.98 163.16) scale(1.37)" xlink:href="#New_Symbol"/><use width="3.26" height="3.26" transform="translate(208.19 167.47) scale(1.37)" xlink:href="#New_Symbol"/><use width="3.26" height="3.26" transform="translate(214.01 157.93) scale(1.37)" xlink:href="#New_Symbol"/><use width="3.26" height="3.26" transform="translate(217.31 121.8) scale(1.37)" xlink:href="#New_Symbol"/><use width="3.26" height="3.26" transform="translate(216.79 130.56) scale(1.37)" xlink:href="#New_Symbol"/><use width="3.26" height="3.26" transform="translate(261.16 159.5) scale(1.37)" xlink:href="#New_Symbol"/><use width="3.26" height="3.26" transform="translate(260.86 174.3) scale(1.37)" xlink:href="#New_Symbol"/><use width="3.26" height="3.26" transform="translate(213.5 178.73) scale(1.37)" xlink:href="#New_Symbol"/><use width="3.26" height="3.26" transform="translate(182.34 178.09) scale(1.37)" xlink:href="#New_Symbol"/><use width="3.26" height="3.26" transform="translate(190.47 173.82) scale(1.37)" xlink:href="#New_Symbol"/><use width="3.26" height="3.26" transform="translate(261.45 145.85) scale(1.37)" xlink:href="#New_Symbol"/><use width="3.26" height="3.26" transform="translate(310.26 140.76) scale(1.37)" xlink:href="#New_Symbol"/><use width="3.26" height="3.26" transform="translate(320.3 139.67) scale(1.37)" xlink:href="#New_Symbol"/><use width="3.26" height="3.26" transform="translate(329.62 118.5) scale(1.37)" xlink:href="#New_Symbol"/><use width="3.26" height="3.26" transform="translate(338.02 113.64) scale(1.37)" xlink:href="#New_Symbol"/><use width="3.26" height="3.26" transform="translate(335.31 125.05) scale(1.37)" xlink:href="#New_Symbol"/><use width="3.26" height="3.26" transform="translate(276.91 133.26) scale(1.37)" xlink:href="#New_Symbol"/><use width="3.26" height="3.26" transform="translate(279.74 141.21) scale(1.37)" xlink:href="#New_Symbol"/><use width="3.26" height="3.26" transform="translate(310.62 154.05) scale(1.37)" xlink:href="#New_Symbol"/><use width="3.26" height="3.26" transform="translate(320.1 153.97) scale(1.37)" xlink:href="#New_Symbol"/><use width="3.26" height="3.26" transform="translate(360.08 150.11) scale(1.37)" xlink:href="#New_Symbol"/><use width="3.26" height="3.26" transform="translate(371.36 162.35) scale(1.37)" xlink:href="#New_Symbol"/><use width="3.26" height="3.26" transform="translate(386.1 187.73) scale(1.37)" xlink:href="#New_Symbol"/><use width="3.26" height="3.26" transform="translate(393.7 209.37) scale(1.37)" xlink:href="#New_Symbol"/><use width="3.26" height="3.26" transform="translate(397.3 226.92) scale(1.37)" xlink:href="#New_Symbol"/><use width="3.26" height="3.26" transform="translate(399.19 247.94) scale(1.37)" xlink:href="#New_Symbol"/><use width="3.26" height="3.26" transform="translate(400.79 269.94) scale(1.37)" xlink:href="#New_Symbol"/><use width="3.26" height="3.26" transform="translate(401.72 287.07) scale(1.37)" xlink:href="#New_Symbol"/><use width="3.26" height="3.26" transform="translate(397.6 302.72) scale(1.37)" xlink:href="#New_Symbol"/><use width="3.26" height="3.26" transform="translate(391.69 320.19) scale(1.37)" xlink:href="#New_Symbol"/><use width="3.26" height="3.26" transform="translate(368.09 350.42) scale(1.37)" xlink:href="#New_Symbol"/><use width="3.26" height="3.26" transform="translate(334.43 370.09) scale(1.37)" xlink:href="#New_Symbol"/><use width="3.26" height="3.26" transform="translate(283.76 380.31) scale(1.37)" xlink:href="#New_Symbol"/><use width="3.26" height="3.26" transform="translate(259.01 382.1) scale(1.37)" xlink:href="#New_Symbol"/><use width="3.26" height="3.26" transform="translate(236.84 387.1) scale(1.37)" xlink:href="#New_Symbol"/><use width="3.26" height="3.26" transform="translate(211.73 392.92) scale(1.37)" xlink:href="#New_Symbol"/><use width="3.26" height="3.26" transform="translate(201.36 392.57) scale(1.37)" xlink:href="#New_Symbol"/><use width="3.26" height="3.26" transform="translate(170.99 386.35) scale(1.37)" xlink:href="#New_Symbol"/><use width="3.26" height="3.26" transform="translate(161.73 383.27) scale(1.37)" xlink:href="#New_Symbol"/><use width="3.26" height="3.26" transform="translate(171.7 366.38) scale(1.37)" xlink:href="#New_Symbol"/><use width="3.26" height="3.26" transform="translate(176.13 345.85) scale(1.37)" xlink:href="#New_Symbol"/><use width="3.26" height="3.26" transform="translate(175.93 317.33) scale(1.37)" xlink:href="#New_Symbol"/><use width="3.26" height="3.26" transform="translate(173.62 300.5) scale(1.37)" xlink:href="#New_Symbol"/><use width="3.26" height="3.26" transform="translate(176.43 286.7) scale(1.37)" xlink:href="#New_Symbol"/></g><path class="cls-16" d="M218.58,227.25a66.38,66.38,0,0,0-1.45-17.37,19.72,19.72,0,0,0-3.38-7.55,7.86,7.86,0,0,0-6.72-3,9,9,0,0,0-6.77,3.37,19.61,19.61,0,0,0-3.54,7.48,61.26,61.26,0,0,0-1.54,17.33c0.06,1.64-1.08,1.79-1.31.1a66.25,66.25,0,0,1-.41-9,45.28,45.28,0,0,1,1-9,21.1,21.1,0,0,1,3.8-8.54,11.33,11.33,0,0,1,3.81-3.14,12.16,12.16,0,0,1,4.8-1.23,10.28,10.28,0,0,1,8.81,4.06,16.54,16.54,0,0,1,2.32,4.18,26.25,26.25,0,0,1,1.31,4.44,48.09,48.09,0,0,1,.94,9,72.08,72.08,0,0,1-.4,9C219.64,229.36,218.51,229.21,218.58,227.25Z"/><path class="cls-16" d="M270.53,227.35a72.08,72.08,0,0,1-.4-9,48.09,48.09,0,0,1,.94-9,26.24,26.24,0,0,1,1.31-4.44,16.54,16.54,0,0,1,2.32-4.18,10.28,10.28,0,0,1,8.81-4.06,12.16,12.16,0,0,1,4.8,1.23,11.33,11.33,0,0,1,3.81,3.14,21.11,21.11,0,0,1,3.8,8.54,45.29,45.29,0,0,1,1,9,66.23,66.23,0,0,1-.41,9c-0.24,1.69-1.38,1.54-1.31-.1a61.25,61.25,0,0,0-1.54-17.33,19.61,19.61,0,0,0-3.54-7.48,9,9,0,0,0-6.77-3.37,7.86,7.86,0,0,0-6.72,3,19.72,19.72,0,0,0-3.38,7.55,66.38,66.38,0,0,0-1.45,17.37C271.93,229.21,270.8,229.36,270.53,227.35Z"/><path class="cls-4" d="M246.88,261.69c-7.52-.65-12.13,4.54-14.64,8.88,2.49,7.22,6.65,12.72,13.6,12.34S257.05,277,259.91,270C257.5,266.27,253.44,262.26,246.88,261.69Z"/><g class="cls-17"><g class="cls-12"><path class="cls-4" d="M240.94,258.82s-8.12,14.78,10.22,22.56-4.22,12.3-6.81,10.86-18.5-16.58-18.5-16.58l-2.36-9.75Z"/></g></g><path class="cls-18" d="M228.7,239s-0.95,18.59,3.54,31.58c2.51-4.33,7.12-9.52,14.64-8.88,6.56,0.56,10.62,4.57,13,8.32,5.29-13,5.24-31,5.24-31C244.2,253.4,228.7,239,228.7,239Z"/><path class="cls-5" d="M204.66,268.36c17.57,0.41,11,44.66,10.58,59.14s2.65,27.33,2.86,36.71,5.1,37.73-16.11,37.53-8.16-55.27-8-66.69C194,335,187.1,267.95,204.66,268.36Zm59.64,0c-17.57.41-11,44.66-10.58,59.14s-2.65,27.33-2.86,36.71-5.1,37.73,16.11,37.53,8.16-55.27,8-66.69C274.93,335,281.87,267.95,264.3,268.36Z"/><g class="cls-19"><g class="cls-12"><path class="cls-13" d="M216.49,319.75L199,329.54s-0.26,25.56-2.7,37.8-0.94,29.37,7.69,35.89-17.06,3-17.06,3-18.42-15.5-17.88-20.12-3.5-60.37-2.41-67.71,9.26-52.48,9.26-52.48l21.76-4.27,6.6,2.64a177.16,177.16,0,0,0-4.45,34c-0.27,16.86,16.64,13.05,16.64,13.05v8.43Z"/></g><g class="cls-12"><path class="cls-13" d="M280.49,319.75L262,329.54s-0.76,25.56-3.2,37.8-1.19,29.37,7.44,35.89-17.19,3-17.19,3-18.48-15.5-17.94-20.12-3.53-60.37-2.44-67.71,9.25-52.48,9.25-52.48l21.76-4.27,6.6,2.64a234.91,234.91,0,0,0-3.45,34c-0.27,16.86,17.64,13.05,17.64,13.05v8.43Z"/></g></g><path class="cls-6" d="M354.95,251.63s1.22-14.28,12.44-11.22c0,0,18.56,17.74,0,37.12S330.06,303,307,308.53,284.79,319.92,263,322.39s-26.31-7.53-26.11-16.3,8.09-19.78,27.81-19.38,17.47,7.75,37.46,4.49,40.79-13.56,47.72-18.92S362.9,259.79,354.95,251.63Zm-214.46,3.63s-22.43,4.94-20.39,23.5,18,22.43,36.56,26.72,15.13,13.05,37.44,15.09,31.25-8,29-21.21-24.27-12.44-49.77-12.64S140.49,275,140.49,275V255.26Z"/><g class="cls-20"><g class="cls-12"><path class="cls-21" d="M139.78,273.79s-8.16,10.88,3.54,16.86,25.83,8.7,31.54,13.87,33.45,11.15,51.67,0,5.71,25.56,5.71,25.56l-67.44-1.36S123.46,308.33,123.46,307,115,263.46,115,263.46s32.09-17.09,32.9-18.06,18.49-2.06,18.49-2.06Z"/></g><g class="cls-12"><path class="cls-21" d="M235.5,300.31s0.14,12.3,21.62,11.49,30.39-7,30.39-7,14.92,2.19,47.28-10.86S378,266.72,378,266.72L371.47,291l-79.14,35.13h-40s-8.7-2.85-11.42-3.42-8.7-6.78-8.7-6.78Z"/></g></g><rect class="cls-22" x="144.49" y="74.09" width="3" height="72"/><rect class="cls-22" x="169.49" y="99.09" width="3" height="25"/><rect class="cls-22" x="369.49" y="63.09" width="3" height="56"/><rect class="cls-22" x="343.49" y="102.09" width="3" height="29"/><text class="cls-23" transform="translate(0 593.74)">Sugar CSS</text></g></g></svg>