<svg xmlns="http://www.w3.org/2000/svg" viewBox="0 0 494.4 615.89"><defs><style>.cls-1{fill:#c8eeee}.cls-2{fill:azure}.cls-3{fill:none}.cls-4{fill:#ff8aff}.cls-5{fill:#cdeeee}.cls-6{fill:#ddf5f5}.cls-7{isolation:isolate}.cls-8{fill:#2dcc9f}.cls-15,.cls-9{fill:#d0f5f5}.cls-10{clip-path:url(#clip-path)}.cls-11,.cls-15{opacity:.35;mix-blend-mode:multiply}.cls-12{fill:#9deeee}.cls-13{clip-path:url(#clip-path-2)}.cls-14{clip-path:url(#clip-path-3)}.cls-16{fill:#94b3ca}.cls-17{clip-path:url(#clip-path-4)}.cls-18{fill:#733335}.cls-19{clip-path:url(#clip-path-5)}.cls-20{clip-path:url(#clip-path-6)}.cls-21{fill:#c2f5f5}.cls-22{fill:#249e7c}.cls-23{fill:#1a382f}</style><clipPath id="clip-path" transform="translate(-2.2)"><path class="cls-1" d="M346.94 165.54l31.55-26.49v148.07l-30.74 64.62-16.01-140.49 15.2-45.71z"/></clipPath><clipPath id="clip-path-2" transform="translate(-2.2)"><path class="cls-2" d="M140.95 165.89h207.14v185.86H140.95z"/></clipPath><clipPath id="clip-path-3" transform="translate(-2.2)"><path class="cls-3" d="M376.55 141.09H183.83l-42.38 26h.04v186h207v-2.21l30-63.76V139.05l-1.94 2.04z"/></clipPath><clipPath id="clip-path-4" transform="translate(-2.2)"><path class="cls-4" d="M246.88 261.69c-7.52-.65-12.13 4.54-14.64 8.88 2.49 7.22 6.65 12.72 13.6 12.34S257.05 277 259.91 270c-2.41-3.73-6.47-7.74-13.03-8.31z"/></clipPath><clipPath id="clip-path-5" transform="translate(-2.2)"><path class="cls-5" d="M204.66 268.36c17.57.41 11 44.66 10.58 59.14s2.65 27.33 2.86 36.71 5.1 37.73-16.11 37.53-8.16-55.27-8-66.69c.01-.05-6.89-67.1 10.67-66.69zm59.64 0c-17.57.41-11 44.66-10.58 59.14s-2.65 27.33-2.86 36.71-5.1 37.73 16.11 37.53 8.16-55.27 8-66.69c-.04-.05 6.9-67.1-10.67-66.69z"/></clipPath><clipPath id="clip-path-6" transform="translate(-2.2)"><path class="cls-6" d="M354.95 251.63s1.22-14.28 12.44-11.22c0 0 18.56 17.74 0 37.12s-37.33 25.47-60.39 31-22.21 11.39-44 13.86-26.31-7.53-26.11-16.3 8.09-19.78 27.81-19.38 17.47 7.75 37.46 4.49 40.79-13.56 47.72-18.92 13.02-12.49 5.07-20.65zm-214.46 3.63s-22.43 4.94-20.39 23.5 18 22.43 36.56 26.72 15.13 13.05 37.44 15.09 31.25-8 29-21.21-24.27-12.44-49.77-12.64S140.49 275 140.49 275v-19.74z"/></clipPath></defs><title>sugarcss-logo</title><g class="cls-7"><g id="Layer_2" data-name="Layer 2"><circle class="cls-8" cx="247.2" cy="232.28" r="232.28"/><path class="cls-9" d="M138.57 166.2l43.06-26.11h194.16l-16.32 44.96-143.58 13.24-77.32-32.09z"/><path class="cls-1" d="M344.73 165.54l31.55-26.49v148.07l-30.73 64.62-16.02-140.49 15.2-45.71z"/><g class="cls-10"><path class="cls-11 cls-12" d="M272.27 322.77s85.53-19.77 97.81-48.3-21.62 6.9-21.62 6.9l-79.66 25.74zM197.53 320.83s-11.58 3.41-27.81-3.93-35.81-10.61-35.81-10.61l-2.86-10.61 10.06-5 39.29 15.48z"/></g><path class="cls-2" d="M138.75 165.89h207.14v185.86H138.75z"/><g class="cls-13"><path class="cls-11 cls-12" d="M272.27 322.77s85.53-19.77 97.81-48.3-21.62 6.9-21.62 6.9l-79.66 25.74zM197.53 320.83s-11.58 3.41-27.81-3.93-35.81-10.61-35.81-10.61l-2.86-10.61 10.06-5 39.29 15.48z"/></g><g class="cls-14"><circle class="cls-15" cx="161.91" cy="204.53" r="2.24"/><circle class="cls-15" cx="161.91" cy="204.53" r="2"/><circle class="cls-15" cx="161.91" cy="204.53" r="2"/><circle class="cls-15" cx="164.29" cy="189.19" r="2.24"/><circle class="cls-15" cx="164.29" cy="189.19" r="2"/><circle class="cls-15" cx="164.29" cy="189.19" r="2"/><circle class="cls-15" cx="184.4" cy="151.66" r="2.24"/><circle class="cls-15" cx="184.4" cy="151.66" r="2"/><circle class="cls-15" cx="184.4" cy="151.66" r="2"/><circle class="cls-15" cx="175.78" cy="167.95" r="2.24"/><circle class="cls-15" cx="175.78" cy="167.95" r="2"/><circle class="cls-15" cx="175.78" cy="167.95" r="2"/><circle class="cls-15" cx="112.24" cy="184.35" r="2.24"/><circle class="cls-15" cx="112.24" cy="184.35" r="2"/><circle class="cls-15" cx="112.24" cy="184.35" r="2"/><circle class="cls-15" cx="153.1" cy="125.37" r="2.24"/><circle class="cls-15" cx="153.1" cy="125.37" r="2"/><circle class="cls-15" cx="153.1" cy="125.37" r="2"/><circle class="cls-15" cx="163.4" cy="146.14" r="2.24"/><circle class="cls-15" cx="163.4" cy="146.14" r="2"/><circle class="cls-15" cx="163.4" cy="146.14" r="2"/><circle class="cls-15" cx="118.54" cy="170.34" r="2.24"/><circle class="cls-15" cx="118.54" cy="170.34" r="2"/><circle class="cls-15" cx="118.54" cy="170.34" r="2"/><circle class="cls-15" cx="186.59" cy="106.06" r="2.24"/><circle class="cls-15" cx="186.59" cy="106.06" r="2"/><circle class="cls-15" cx="186.59" cy="106.06" r="2"/><circle class="cls-15" cx="118.45" cy="194.07" r="2.24"/><circle class="cls-15" cx="118.45" cy="194.07" r="2"/><circle class="cls-15" cx="118.45" cy="194.07" r="2"/><circle class="cls-15" cx="195.57" cy="121" r="2.24"/><circle class="cls-15" cx="195.57" cy="121" r="2"/><circle class="cls-15" cx="195.57" cy="121" r="2"/><circle class="cls-15" cx="174.65" cy="196.67" r="2.24"/><circle class="cls-15" cx="174.65" cy="196.67" r="2"/><circle class="cls-15" cx="174.65" cy="196.67" r="2"/><circle class="cls-15" cx="142.29" cy="212.94" r="2.24"/><circle class="cls-15" cx="142.29" cy="212.94" r="2"/><circle class="cls-15" cx="142.29" cy="212.94" r="2"/><circle class="cls-15" cx="244.87" cy="103.41" r="2.24"/><circle class="cls-15" cx="244.87" cy="103.41" r="2"/><circle class="cls-15" cx="244.87" cy="103.41" r="2"/><circle class="cls-15" cx="116.32" cy="255.83" r="2.24"/><circle class="cls-15" cx="116.32" cy="255.83" r="2"/><circle class="cls-15" cx="116.32" cy="255.83" r="2"/><circle class="cls-15" cx="259.01" cy="118.72" r="2.24"/><circle class="cls-15" cx="259.01" cy="118.72" r="2"/><circle class="cls-15" cx="259.01" cy="118.72" r="2"/><circle class="cls-15" cx="172.86" cy="246.44" r="2.24"/><circle class="cls-15" cx="172.86" cy="246.44" r="2"/><circle class="cls-15" cx="172.86" cy="246.44" r="2"/><circle class="cls-15" cx="251.55" cy="157.11" r="2.24"/><circle class="cls-15" cx="251.55" cy="157.11" r="2"/><circle class="cls-15" cx="251.55" cy="157.11" r="2"/><circle class="cls-15" cx="250.9" cy="169.1" r="2.24"/><circle class="cls-15" cx="250.9" cy="169.1" r="2"/><circle class="cls-15" cx="250.9" cy="169.1" r="2"/><circle class="cls-15" cx="191.27" cy="215.86" r="2.24"/><circle class="cls-15" cx="191.27" cy="215.86" r="2"/><circle class="cls-15" cx="191.27" cy="215.86" r="2"/><circle class="cls-15" cx="230.66" cy="135.22" r="2.24"/><circle class="cls-15" cx="230.66" cy="135.22" r="2"/><circle class="cls-15" cx="230.66" cy="135.22" r="2"/><circle class="cls-15" cx="232.12" cy="125.99" r="2.24"/><circle class="cls-15" cx="232.12" cy="125.99" r="2"/><circle class="cls-15" cx="232.12" cy="125.99" r="2"/><circle class="cls-15" cx="231.6" cy="148.08" r="2.24"/><circle class="cls-15" cx="231.6" cy="148.08" r="2"/><circle class="cls-15" cx="231.6" cy="148.08" r="2"/><circle class="cls-15" cx="222.98" cy="144.73" r="2.24"/><circle class="cls-15" cx="222.98" cy="144.73" r="2"/><circle class="cls-15" cx="222.98" cy="144.73" r="2"/><circle class="cls-15" cx="226.51" cy="156.36" r="2.24"/><circle class="cls-15" cx="226.51" cy="156.36" r="2"/><circle class="cls-15" cx="226.51" cy="156.36" r="2"/><circle class="cls-15" cx="211.93" cy="146.93" r="2.24"/><circle class="cls-15" cx="211.93" cy="146.93" r="2"/><circle class="cls-15" cx="211.93" cy="146.93" r="2"/><circle class="cls-15" cx="196.26" cy="155.96" r="2.24"/><circle class="cls-15" cx="196.26" cy="155.96" r="2"/><circle class="cls-15" cx="196.26" cy="155.96" r="2"/><circle class="cls-15" cx="170.36" cy="159.35" r="2.24"/><circle class="cls-15" cx="170.36" cy="159.35" r="2"/><circle class="cls-15" cx="170.36" cy="159.35" r="2"/><circle class="cls-15" cx="160.32" cy="164.28" r="2.24"/><circle class="cls-15" cx="160.32" cy="164.28" r="2"/><circle class="cls-15" cx="160.32" cy="164.28" r="2"/><circle class="cls-15" cx="146.62" cy="161.42" r="2.24"/><circle class="cls-15" cx="146.62" cy="161.42" r="2"/><circle class="cls-15" cx="146.62" cy="161.42" r="2"/><circle class="cls-15" cx="140.19" cy="153.26" r="2.24"/><circle class="cls-15" cx="140.19" cy="153.26" r="2"/><circle class="cls-15" cx="140.19" cy="153.26" r="2"/><circle class="cls-15" cx="137.19" cy="162.91" r="2.24"/><circle class="cls-15" cx="137.19" cy="162.91" r="2"/><circle class="cls-15" cx="137.19" cy="162.91" r="2"/><circle class="cls-15" cx="137.53" cy="177.76" r="2.24"/><circle class="cls-15" cx="137.53" cy="177.76" r="2"/><circle class="cls-15" cx="137.53" cy="177.76" r="2"/><circle class="cls-15" cx="139.93" cy="188.56" r="2.24"/><circle class="cls-15" cx="139.93" cy="188.56" r="2"/><circle class="cls-15" cx="139.93" cy="188.56" r="2"/><circle class="cls-15" cx="193.37" cy="185.91" r="2.24"/><circle class="cls-15" cx="193.37" cy="185.91" r="2"/><circle class="cls-15" cx="193.37" cy="185.91" r="2"/><circle class="cls-15" cx="232.26" cy="169.32" r="2.24"/><circle class="cls-15" cx="232.26" cy="169.32" r="2"/><circle class="cls-15" cx="232.26" cy="169.32" r="2"/><circle class="cls-15" cx="255.15" cy="137.35" r="2.24"/><circle class="cls-15" cx="255.15" cy="137.35" r="2"/><circle class="cls-15" cx="255.15" cy="137.35" r="2"/><circle class="cls-15" cx="274.99" cy="121.36" r="2.24"/><circle class="cls-15" cx="274.99" cy="121.36" r="2"/><circle class="cls-15" cx="274.99" cy="121.36" r="2"/><circle class="cls-15" cx="291.11" cy="113.53" r="2.24"/><circle class="cls-15" cx="291.11" cy="113.53" r="2"/><circle class="cls-15" cx="291.11" cy="113.53" r="2"/><circle class="cls-15" cx="322.44" cy="110.3" r="2.24"/><circle class="cls-15" cx="322.44" cy="110.3" r="2"/><circle class="cls-15" cx="322.44" cy="110.3" r="2"/><circle class="cls-15" cx="367.83" cy="125.88" r="2.24"/><circle class="cls-15" cx="367.83" cy="125.88" r="2"/><circle class="cls-15" cx="367.83" cy="125.88" r="2"/><circle class="cls-15" cx="373.96" cy="135.14" r="2.24"/><circle class="cls-15" cx="373.96" cy="135.14" r="2"/><circle class="cls-15" cx="373.96" cy="135.14" r="2"/><circle class="cls-15" cx="327.89" cy="150.15" r="2.24"/><circle class="cls-15" cx="327.89" cy="150.15" r="2"/><circle class="cls-15" cx="327.89" cy="150.15" r="2"/><circle class="cls-15" cx="290.26" cy="158.8" r="2.24"/><circle class="cls-15" cx="290.26" cy="158.8" r="2"/><circle class="cls-15" cx="290.26" cy="158.8" r="2"/><circle class="cls-15" cx="279.02" cy="153.95" r="2.24"/><circle class="cls-15" cx="279.02" cy="153.95" r="2"/><circle class="cls-15" cx="279.02" cy="153.95" r="2"/><circle class="cls-15" cx="280.15" cy="163.72" r="2.24"/><circle class="cls-15" cx="280.15" cy="163.72" r="2"/><circle class="cls-15" cx="280.15" cy="163.72" r="2"/><circle class="cls-15" cx="361.23" cy="136.72" r="2.24"/><circle class="cls-15" cx="361.23" cy="136.72" r="2"/><circle class="cls-15" cx="361.23" cy="136.72" r="2"/><circle class="cls-15" cx="354.38" cy="126.02" r="2.24"/><circle class="cls-15" cx="354.38" cy="126.02" r="2"/><circle class="cls-15" cx="354.38" cy="126.02" r="2"/><circle class="cls-15" cx="319.26" cy="118.67" r="2.24"/><circle class="cls-15" cx="319.26" cy="118.67" r="2"/><circle class="cls-15" cx="319.26" cy="118.67" r="2"/><circle class="cls-15" cx="307.09" cy="115.72" r="2.24"/><circle class="cls-15" cx="307.09" cy="115.72" r="2"/><circle class="cls-15" cx="307.09" cy="115.72" r="2"/><circle class="cls-15" cx="298.59" cy="132.67" r="2.24"/><circle class="cls-15" cx="298.59" cy="132.67" r="2"/><circle class="cls-15" cx="298.59" cy="132.67" r="2"/><circle class="cls-15" cx="300.31" cy="124.77" r="2.24"/><circle class="cls-15" cx="300.31" cy="124.77" r="2"/><circle class="cls-15" cx="300.31" cy="124.77" r="2"/><circle class="cls-15" cx="345.2" cy="142.38" r="2.24"/><circle class="cls-15" cx="345.2" cy="142.38" r="2"/><circle class="cls-15" cx="345.2" cy="142.38" r="2"/><circle class="cls-15" cx="349.18" cy="153.54" r="2.24"/><circle class="cls-15" cx="349.18" cy="153.54" r="2"/><circle class="cls-15" cx="349.18" cy="153.54" r="2"/><circle class="cls-15" cx="334.43" cy="168.68" r="2.24"/><circle class="cls-15" cx="334.43" cy="168.68" r="2"/><circle class="cls-15" cx="334.43" cy="168.68" r="2"/><circle class="cls-15" cx="276.82" cy="186.96" r="2.24"/><circle class="cls-15" cx="276.82" cy="186.96" r="2"/><circle class="cls-15" cx="276.82" cy="186.96" r="2"/><circle class="cls-15" cx="253.13" cy="191.5" r="2.24"/><circle class="cls-15" cx="253.13" cy="191.5" r="2"/><circle class="cls-15" cx="253.13" cy="191.5" r="2"/><circle class="cls-15" cx="238.97" cy="193.97" r="2.24"/><circle class="cls-15" cx="238.97" cy="193.97" r="2"/><circle class="cls-15" cx="238.97" cy="193.97" r="2"/><circle class="cls-15" cx="222.04" cy="222.27" r="2.24"/><circle class="cls-15" cx="222.04" cy="222.27" r="2"/><circle class="cls-15" cx="222.04" cy="222.27" r="2"/><circle class="cls-15" cx="207.7" cy="225.73" r="2.24"/><circle class="cls-15" cx="207.7" cy="225.73" r="2"/><circle class="cls-15" cx="207.7" cy="225.73" r="2"/><circle class="cls-15" cx="261.79" cy="231.27" r="2.24"/><circle class="cls-15" cx="261.79" cy="231.27" r="2"/><circle class="cls-15" cx="261.79" cy="231.27" r="2"/><circle class="cls-15" cx="276.4" cy="220.3" r="2.24"/><circle class="cls-15" cx="276.4" cy="220.3" r="2"/><circle class="cls-15" cx="276.4" cy="220.3" r="2"/><circle class="cls-15" cx="295.08" cy="196.69" r="2.24"/><circle class="cls-15" cx="295.08" cy="196.69" r="2"/><circle class="cls-15" cx="295.08" cy="196.69" r="2"/><circle class="cls-15" cx="368.9" cy="174.79" r="2.24"/><circle class="cls-15" cx="368.9" cy="174.79" r="2"/><circle class="cls-15" cx="368.9" cy="174.79" r="2"/><circle class="cls-15" cx="383.13" cy="162.02" r="2.24"/><circle class="cls-15" cx="383.13" cy="162.02" r="2"/><circle class="cls-15" cx="383.13" cy="162.02" r="2"/><circle class="cls-15" cx="386.45" cy="170.24" r="2.24"/><circle class="cls-15" cx="386.45" cy="170.24" r="2"/><circle class="cls-15" cx="386.45" cy="170.24" r="2"/><circle class="cls-15" cx="379.18" cy="179.78" r="2.24"/><circle class="cls-15" cx="379.18" cy="179.78" r="2"/><circle class="cls-15" cx="379.18" cy="179.78" r="2"/><circle class="cls-15" cx="352.83" cy="213.26" r="2.24"/><circle class="cls-15" cx="352.83" cy="213.26" r="2"/><circle class="cls-15" cx="352.83" cy="213.26" r="2"/><circle class="cls-15" cx="338.11" cy="225.06" r="2.24"/><circle class="cls-15" cx="338.11" cy="225.06" r="2"/><circle class="cls-15" cx="338.11" cy="225.06" r="2"/><circle class="cls-15" cx="325.08" cy="233.72" r="2.24"/><circle class="cls-15" cx="325.08" cy="233.72" r="2"/><circle class="cls-15" cx="325.08" cy="233.72" r="2"/><circle class="cls-15" cx="306.12" cy="248.92" r="2.24"/><circle class="cls-15" cx="306.12" cy="248.92" r="2"/><circle class="cls-15" cx="306.12" cy="248.92" r="2"/><circle class="cls-15" cx="296.99" cy="262.68" r="2.24"/><circle class="cls-15" cx="296.99" cy="262.68" r="2"/><circle class="cls-15" cx="296.99" cy="262.68" r="2"/><circle class="cls-15" cx="278.53" cy="280.92" r="2.24"/><circle class="cls-15" cx="278.53" cy="280.92" r="2"/><circle class="cls-15" cx="278.53" cy="280.92" r="2"/><circle class="cls-15" cx="275.28" cy="295.15" r="2.24"/><circle class="cls-15" cx="275.28" cy="295.15" r="2"/><circle class="cls-15" cx="275.28" cy="295.15" r="2"/><circle class="cls-15" cx="275.71" cy="315.45" r="2.24"/><circle class="cls-15" cx="275.71" cy="315.45" r="2"/><circle class="cls-15" cx="275.71" cy="315.45" r="2"/><circle class="cls-15" cx="303.9" cy="337.23" r="2.24"/><circle class="cls-15" cx="303.9" cy="337.23" r="2"/><circle class="cls-15" cx="303.9" cy="337.23" r="2"/><circle class="cls-15" cx="313.3" cy="350.4" r="2.24"/><circle class="cls-15" cx="313.3" cy="350.4" r="2"/><circle class="cls-15" cx="313.3" cy="350.4" r="2"/><circle class="cls-15" cx="326.85" cy="352.41" r="2.24"/><circle class="cls-15" cx="326.85" cy="352.41" r="2"/><circle class="cls-15" cx="326.85" cy="352.41" r="2"/><circle class="cls-15" cx="352.41" cy="338.76" r="2.24"/><circle class="cls-15" cx="352.41" cy="338.76" r="2"/><circle class="cls-15" cx="352.41" cy="338.76" r="2"/><circle class="cls-15" cx="360.53" cy="300.61" r="2.24"/><circle class="cls-15" cx="360.53" cy="300.61" r="2"/><circle class="cls-15" cx="360.53" cy="300.61" r="2"/><circle class="cls-15" cx="338.84" cy="268.82" r="2.24"/><circle class="cls-15" cx="338.84" cy="268.82" r="2"/><circle class="cls-15" cx="338.84" cy="268.82" r="2"/><circle class="cls-15" cx="315.69" cy="257.14" r="2.24"/><circle class="cls-15" cx="315.69" cy="257.14" r="2"/><circle class="cls-15" cx="315.69" cy="257.14" r="2"/><circle class="cls-15" cx="287.63" cy="256.9" r="2.24"/><circle class="cls-15" cx="287.63" cy="256.9" r="2"/><circle class="cls-15" cx="287.63" cy="256.9" r="2"/><circle class="cls-15" cx="276.92" cy="255.48" r="2.24"/><circle class="cls-15" cx="276.92" cy="255.48" r="2"/><circle class="cls-15" cx="276.92" cy="255.48" r="2"/><circle class="cls-15" cx="286.12" cy="238.5" r="2.24"/><circle class="cls-15" cx="286.12" cy="238.5" r="2"/><circle class="cls-15" cx="286.12" cy="238.5" r="2"/><circle class="cls-15" cx="305.29" cy="217.91" r="2.24"/><circle class="cls-15" cx="305.29" cy="217.91" r="2"/><circle class="cls-15" cx="305.29" cy="217.91" r="2"/><circle class="cls-15" cx="318.13" cy="212.36" r="2.24"/><circle class="cls-15" cx="318.13" cy="212.36" r="2"/><circle class="cls-15" cx="318.13" cy="212.36" r="2"/><circle class="cls-15" cx="339.94" cy="190.36" r="2.24"/><circle class="cls-15" cx="339.94" cy="190.36" r="2"/><circle class="cls-15" cx="339.94" cy="190.36" r="2"/><circle class="cls-15" cx="353.11" cy="187.85" r="2.24"/><circle class="cls-15" cx="353.11" cy="187.85" r="2"/><circle class="cls-15" cx="353.11" cy="187.85" r="2"/><circle class="cls-15" cx="347.81" cy="181.11" r="2.24"/><circle class="cls-15" cx="347.81" cy="181.11" r="2"/><circle class="cls-15" cx="347.81" cy="181.11" r="2"/><circle class="cls-15" cx="342.66" cy="202.02" r="2.24"/><circle class="cls-15" cx="342.66" cy="202.02" r="2"/><circle class="cls-15" cx="342.66" cy="202.02" r="2"/><circle class="cls-15" cx="328.41" cy="196.4" r="2.24"/><circle class="cls-15" cx="328.41" cy="196.4" r="2"/><circle class="cls-15" cx="328.41" cy="196.4" r="2"/><circle class="cls-15" cx="313.76" cy="187.9" r="2.24"/><circle class="cls-15" cx="313.76" cy="187.9" r="2"/><circle class="cls-15" cx="313.76" cy="187.9" r="2"/><circle class="cls-15" cx="304.85" cy="182.18" r="2.24"/><circle class="cls-15" cx="304.85" cy="182.18" r="2"/><circle class="cls-15" cx="304.85" cy="182.18" r="2"/><circle class="cls-15" cx="314.06" cy="175.54" r="2.24"/><circle class="cls-15" cx="314.06" cy="175.54" r="2"/><circle class="cls-15" cx="314.06" cy="175.54" r="2"/><circle class="cls-15" cx="341.4" cy="158.92" r="2.24"/><circle class="cls-15" cx="341.4" cy="158.92" r="2"/><circle class="cls-15" cx="341.4" cy="158.92" r="2"/><circle class="cls-15" cx="337.88" cy="147.73" r="2.24"/><circle class="cls-15" cx="337.88" cy="147.73" r="2"/><circle class="cls-15" cx="337.88" cy="147.73" r="2"/><circle class="cls-15" cx="318.38" cy="132.5" r="2.24"/><circle class="cls-15" cx="318.38" cy="132.5" r="2"/><circle class="cls-15" cx="318.38" cy="132.5" r="2"/><circle class="cls-15" cx="301.72" cy="144.21" r="2.24"/><circle class="cls-15" cx="301.72" cy="144.21" r="2"/><circle class="cls-15" cx="301.72" cy="144.21" r="2"/><circle class="cls-15" cx="243.68" cy="138.27" r="2.24"/><circle class="cls-15" cx="243.68" cy="138.27" r="2"/><circle class="cls-15" cx="243.68" cy="138.27" r="2"/><circle class="cls-15" cx="192.8" cy="136.32" r="2.24"/><circle class="cls-15" cx="192.8" cy="136.32" r="2"/><circle class="cls-15" cx="192.8" cy="136.32" r="2"/><circle class="cls-15" cx="176.19" cy="138.05" r="2.24"/><circle class="cls-15" cx="176.19" cy="138.05" r="2"/><circle class="cls-15" cx="176.19" cy="138.05" r="2"/><circle class="cls-15" cx="176.52" cy="127.92" r="2.24"/><circle class="cls-15" cx="176.52" cy="127.92" r="2"/><circle class="cls-15" cx="176.52" cy="127.92" r="2"/><circle class="cls-15" cx="167.73" cy="126.94" r="2.24"/><circle class="cls-15" cx="167.73" cy="126.94" r="2"/><circle class="cls-15" cx="167.73" cy="126.94" r="2"/><circle class="cls-15" cx="163.96" cy="135.75" r="2.24"/><circle class="cls-15" cx="163.96" cy="135.75" r="2"/><circle class="cls-15" cx="163.96" cy="135.75" r="2"/><circle class="cls-15" cx="152.23" cy="201.91" r="2.24"/><circle class="cls-15" cx="152.23" cy="201.91" r="2"/><circle class="cls-15" cx="152.23" cy="201.91" r="2"/><circle class="cls-15" cx="144.44" cy="239.84" r="2.24"/><circle class="cls-15" cx="144.44" cy="239.84" r="2"/><circle class="cls-15" cx="144.44" cy="239.84" r="2"/><circle class="cls-15" cx="143.59" cy="251.12" r="2.24"/><circle class="cls-15" cx="143.59" cy="251.12" r="2"/><circle class="cls-15" cx="143.59" cy="251.12" r="2"/><circle class="cls-15" cx="140.07" cy="265.35" r="2.24"/><circle class="cls-15" cx="140.07" cy="265.35" r="2"/><circle class="cls-15" cx="140.07" cy="265.35" r="2"/><circle class="cls-15" cx="148.89" cy="270.62" r="2.24"/><circle class="cls-15" cx="148.89" cy="270.62" r="2"/><circle class="cls-15" cx="148.89" cy="270.62" r="2"/><circle class="cls-15" cx="160.15" cy="298.6" r="2.24"/><circle class="cls-15" cx="160.15" cy="298.6" r="2"/><circle class="cls-15" cx="160.15" cy="298.6" r="2"/><circle class="cls-15" cx="164.53" cy="323.51" r="2.24"/><circle class="cls-15" cx="164.53" cy="323.51" r="2"/><circle class="cls-15" cx="164.53" cy="323.51" r="2"/><circle class="cls-15" cx="160.32" cy="342.44" r="2.24"/><circle class="cls-15" cx="160.32" cy="342.44" r="2"/><circle class="cls-15" cx="160.32" cy="342.44" r="2"/><circle class="cls-15" cx="156.39" cy="356.93" r="2.24"/><circle class="cls-15" cx="156.39" cy="356.93" r="2"/><circle class="cls-15" cx="156.39" cy="356.93" r="2"/><circle class="cls-15" cx="147.29" cy="357.37" r="2.24"/><circle class="cls-15" cx="147.29" cy="357.37" r="2"/><circle class="cls-15" cx="147.29" cy="357.37" r="2"/><circle class="cls-15" cx="133.45" cy="329.38" r="2.24"/><circle class="cls-15" cx="133.45" cy="329.38" r="2"/><circle class="cls-15" cx="133.45" cy="329.38" r="2"/><circle class="cls-15" cx="140.98" cy="298.8" r="2.24"/><circle class="cls-15" cx="140.98" cy="298.8" r="2"/><circle class="cls-15" cx="140.98" cy="298.8" r="2"/><circle class="cls-15" cx="177.38" cy="264.67" r="2.24"/><circle class="cls-15" cx="177.38" cy="264.67" r="2"/><circle class="cls-15" cx="177.38" cy="264.67" r="2"/><circle class="cls-15" cx="196.17" cy="249.03" r="2.24"/><circle class="cls-15" cx="196.17" cy="249.03" r="2"/><circle class="cls-15" cx="196.17" cy="249.03" r="2"/><circle class="cls-15" cx="200.65" cy="262.49" r="2.24"/><circle class="cls-15" cx="200.65" cy="262.49" r="2"/><circle class="cls-15" cx="200.65" cy="262.49" r="2"/><circle class="cls-15" cx="201.14" cy="309.88" r="2.24"/><circle class="cls-15" cx="201.14" cy="309.88" r="2"/><circle class="cls-15" cx="201.14" cy="309.88" r="2"/><circle class="cls-15" cx="203.45" cy="328.45" r="2.24"/><circle class="cls-15" cx="203.45" cy="328.45" r="2"/><circle class="cls-15" cx="203.45" cy="328.45" r="2"/><circle class="cls-15" cx="205.24" cy="340.87" r="2.24"/><circle class="cls-15" cx="205.24" cy="340.87" r="2"/><circle class="cls-15" cx="205.24" cy="340.87" r="2"/><circle class="cls-15" cx="214.71" cy="345.47" r="2.24"/><circle class="cls-15" cx="214.71" cy="345.47" r="2"/><circle class="cls-15" cx="214.71" cy="345.47" r="2"/><circle class="cls-15" cx="250.85" cy="352.77" r="2.24"/><circle class="cls-15" cx="250.85" cy="352.77" r="2"/><circle class="cls-15" cx="250.85" cy="352.77" r="2"/><circle class="cls-15" cx="266.61" cy="361.29" r="2.24"/><circle class="cls-15" cx="266.61" cy="361.29" r="2"/><circle class="cls-15" cx="266.61" cy="361.29" r="2"/><circle class="cls-15" cx="264.46" cy="353.2" r="2.24"/><circle class="cls-15" cx="264.46" cy="353.2" r="2"/><circle class="cls-15" cx="264.46" cy="353.2" r="2"/><circle class="cls-15" cx="238.24" cy="333.9" r="2.24"/><circle class="cls-15" cx="238.24" cy="333.9" r="2"/><circle class="cls-15" cx="238.24" cy="333.9" r="2"/><circle class="cls-15" cx="227.22" cy="318.33" r="2.24"/><circle class="cls-15" cx="227.22" cy="318.33" r="2"/><circle class="cls-15" cx="227.22" cy="318.33" r="2"/><circle class="cls-15" cx="229.04" cy="309.42" r="2.24"/><circle class="cls-15" cx="229.04" cy="309.42" r="2"/><circle class="cls-15" cx="229.04" cy="309.42" r="2"/><circle class="cls-15" cx="217.57" cy="304.76" r="2.24"/><circle class="cls-15" cx="217.57" cy="304.76" r="2"/><circle class="cls-15" cx="217.57" cy="304.76" r="2"/><circle class="cls-15" cx="209.17" cy="299.04" r="2.24"/><circle class="cls-15" cx="209.17" cy="299.04" r="2"/><circle class="cls-15" cx="209.17" cy="299.04" r="2"/><circle class="cls-15" cx="198.23" cy="288.83" r="2.24"/><circle class="cls-15" cx="198.23" cy="288.83" r="2"/><circle class="cls-15" cx="198.23" cy="288.83" r="2"/><circle class="cls-15" cx="211.87" cy="286.02" r="2.24"/><circle class="cls-15" cx="211.87" cy="286.02" r="2"/><circle class="cls-15" cx="211.87" cy="286.02" r="2"/><circle class="cls-15" cx="253.94" cy="294.61" r="2.24"/><circle class="cls-15" cx="253.94" cy="294.61" r="2"/><circle class="cls-15" cx="253.94" cy="294.61" r="2"/><circle class="cls-15" cx="266.3" cy="302.94" r="2.24"/><circle class="cls-15" cx="266.3" cy="302.94" r="2"/><circle class="cls-15" cx="266.3" cy="302.94" r="2"/><circle class="cls-15" cx="290.61" cy="314.06" r="2.24"/><circle class="cls-15" cx="290.61" cy="314.06" r="2"/><circle class="cls-15" cx="290.61" cy="314.06" r="2"/><circle class="cls-15" cx="295.31" cy="325.03" r="2.24"/><circle class="cls-15" cx="295.31" cy="325.03" r="2"/><circle class="cls-15" cx="295.31" cy="325.03" r="2"/><circle class="cls-15" cx="287.96" cy="339.55" r="2.24"/><circle class="cls-15" cx="287.96" cy="339.55" r="2"/><circle class="cls-15" cx="287.96" cy="339.55" r="2"/><circle class="cls-15" cx="288.01" cy="351.36" r="2.24"/><circle class="cls-15" cx="288.01" cy="351.36" r="2"/><circle class="cls-15" cx="288.01" cy="351.36" r="2"/><circle class="cls-15" cx="300.28" cy="349.73" r="2.24"/><circle class="cls-15" cx="300.28" cy="349.73" r="2"/><circle class="cls-15" cx="300.28" cy="349.73" r="2"/><circle class="cls-15" cx="325.15" cy="337.68" r="2.24"/><circle class="cls-15" cx="325.15" cy="337.68" r="2"/><circle class="cls-15" cx="325.15" cy="337.68" r="2"/><circle class="cls-15" cx="357.26" cy="324.77" r="2.24"/><circle class="cls-15" cx="357.26" cy="324.77" r="2"/><circle class="cls-15" cx="357.26" cy="324.77" r="2"/><circle class="cls-15" cx="368.71" cy="312.79" r="2.24"/><circle class="cls-15" cx="368.71" cy="312.79" r="2"/><circle class="cls-15" cx="368.71" cy="312.79" r="2"/><circle class="cls-15" cx="377.54" cy="298.93" r="2.24"/><circle class="cls-15" cx="377.54" cy="298.93" r="2"/><circle class="cls-15" cx="377.54" cy="298.93" r="2"/><circle class="cls-15" cx="379.84" cy="288.67" r="2.24"/><circle class="cls-15" cx="379.84" cy="288.67" r="2"/><circle class="cls-15" cx="379.84" cy="288.67" r="2"/><circle class="cls-15" cx="387.49" cy="283.49" r="2.24"/><circle class="cls-15" cx="387.49" cy="283.49" r="2"/><circle class="cls-15" cx="387.49" cy="283.49" r="2"/><circle class="cls-15" cx="381.83" cy="272.65" r="2.24"/><circle class="cls-15" cx="381.83" cy="272.65" r="2"/><circle class="cls-15" cx="381.83" cy="272.65" r="2"/><circle class="cls-15" cx="378.68" cy="256.02" r="2.24"/><circle class="cls-15" cx="378.68" cy="256.02" r="2"/><circle class="cls-15" cx="378.68" cy="256.02" r="2"/><circle class="cls-15" cx="384.92" cy="238.13" r="2.24"/><circle class="cls-15" cx="384.92" cy="238.13" r="2"/><circle class="cls-15" cx="384.92" cy="238.13" r="2"/><circle class="cls-15" cx="376.44" cy="241.76" r="2.24"/><circle class="cls-15" cx="376.44" cy="241.76" r="2"/><circle class="cls-15" cx="376.44" cy="241.76" r="2"/><circle class="cls-15" cx="357.27" cy="276.49" r="2.24"/><circle class="cls-15" cx="357.27" cy="276.49" r="2"/><circle class="cls-15" cx="357.27" cy="276.49" r="2"/><circle class="cls-15" cx="348.55" cy="305.37" r="2.24"/><circle class="cls-15" cx="348.55" cy="305.37" r="2"/><circle class="cls-15" cx="348.55" cy="305.37" r="2"/><circle class="cls-15" cx="345.6" cy="319.63" r="2.24"/><circle class="cls-15" cx="345.6" cy="319.63" r="2"/><circle class="cls-15" cx="345.6" cy="319.63" r="2"/><circle class="cls-15" cx="342.11" cy="334.05" r="2.24"/><circle class="cls-15" cx="342.11" cy="334.05" r="2"/><circle class="cls-15" cx="342.11" cy="334.05" r="2"/><circle class="cls-15" cx="335.96" cy="328.13" r="2.24"/><circle class="cls-15" cx="335.96" cy="328.13" r="2"/><circle class="cls-15" cx="335.96" cy="328.13" r="2"/><circle class="cls-15" cx="332.53" cy="312.22" r="2.24"/><circle class="cls-15" cx="332.53" cy="312.22" r="2"/><circle class="cls-15" cx="332.53" cy="312.22" r="2"/><circle class="cls-15" cx="327.26" cy="303.37" r="2.24"/><circle class="cls-15" cx="327.26" cy="303.37" r="2"/><circle class="cls-15" cx="327.26" cy="303.37" r="2"/><circle class="cls-15" cx="332.94" cy="296.9" r="2.24"/><circle class="cls-15" cx="332.94" cy="296.9" r="2"/><circle class="cls-15" cx="332.94" cy="296.9" r="2"/><circle class="cls-15" cx="319.21" cy="315.58" r="2.24"/><circle class="cls-15" cx="319.21" cy="315.58" r="2"/><circle class="cls-15" cx="319.21" cy="315.58" r="2"/><circle class="cls-15" cx="317.01" cy="307.92" r="2.24"/><circle class="cls-15" cx="317.01" cy="307.92" r="2"/><circle class="cls-15" cx="317.01" cy="307.92" r="2"/><circle class="cls-15" cx="307.91" cy="300.04" r="2.24"/><circle class="cls-15" cx="307.91" cy="300.04" r="2"/><circle class="cls-15" cx="307.91" cy="300.04" r="2"/><circle class="cls-15" cx="315.71" cy="285.75" r="2.24"/><circle class="cls-15" cx="315.71" cy="285.75" r="2"/><circle class="cls-15" cx="315.71" cy="285.75" r="2"/><circle class="cls-15" cx="297.46" cy="286.74" r="2.24"/><circle class="cls-15" cx="297.46" cy="286.74" r="2"/><circle class="cls-15" cx="297.46" cy="286.74" r="2"/><circle class="cls-15" cx="305.88" cy="288.43" r="2.24"/><circle class="cls-15" cx="305.88" cy="288.43" r="2"/><circle class="cls-15" cx="305.88" cy="288.43" r="2"/><circle class="cls-15" cx="307" cy="278.66" r="2.24"/><circle class="cls-15" cx="307" cy="278.66" r="2"/><circle class="cls-15" cx="307" cy="278.66" r="2"/><circle class="cls-15" cx="321.06" cy="270.29" r="2.24"/><circle class="cls-15" cx="321.06" cy="270.29" r="2"/><circle class="cls-15" cx="321.06" cy="270.29" r="2"/><circle class="cls-15" cx="344.75" cy="250.24" r="2.24"/><circle class="cls-15" cx="344.75" cy="250.24" r="2"/><circle class="cls-15" cx="344.75" cy="250.24" r="2"/><circle class="cls-15" cx="355.23" cy="241.93" r="2.24"/><circle class="cls-15" cx="355.23" cy="241.93" r="2"/><circle class="cls-15" cx="355.23" cy="241.93" r="2"/><circle class="cls-15" cx="362.48" cy="233.03" r="2.24"/><circle class="cls-15" cx="362.48" cy="233.03" r="2"/><circle class="cls-15" cx="362.48" cy="233.03" r="2"/><circle class="cls-15" cx="367.77" cy="224.43" r="2.24"/><circle class="cls-15" cx="367.77" cy="224.43" r="2"/><circle class="cls-15" cx="367.77" cy="224.43" r="2"/><circle class="cls-15" cx="377.71" cy="224.05" r="2.24"/><circle class="cls-15" cx="377.71" cy="224.05" r="2"/><circle class="cls-15" cx="377.71" cy="224.05" r="2"/><circle class="cls-15" cx="380.49" cy="214.77" r="2.24"/><circle class="cls-15" cx="380.49" cy="214.77" r="2"/><circle class="cls-15" cx="380.49" cy="214.77" r="2"/><circle class="cls-15" cx="367.19" cy="204.88" r="2.24"/><circle class="cls-15" cx="367.19" cy="204.88" r="2"/><circle class="cls-15" cx="367.19" cy="204.88" r="2"/><circle class="cls-15" cx="334.99" cy="205.12" r="2.24"/><circle class="cls-15" cx="334.99" cy="205.12" r="2"/><circle class="cls-15" cx="334.99" cy="205.12" r="2"/><circle class="cls-15" cx="318.11" cy="199.27" r="2.24"/><circle class="cls-15" cx="318.11" cy="199.27" r="2"/><circle class="cls-15" cx="318.11" cy="199.27" r="2"/><circle class="cls-15" cx="280.61" cy="200.9" r="2.24"/><circle class="cls-15" cx="280.61" cy="200.9" r="2"/><circle class="cls-15" cx="280.61" cy="200.9" r="2"/><circle class="cls-15" cx="260.37" cy="201.71" r="2.24"/><circle class="cls-15" cx="260.37" cy="201.71" r="2"/><circle class="cls-15" cx="260.37" cy="201.71" r="2"/><circle class="cls-15" cx="228.8" cy="201.07" r="2.24"/><circle class="cls-15" cx="228.8" cy="201.07" r="2"/><circle class="cls-15" cx="228.8" cy="201.07" r="2"/><circle class="cls-15" cx="217.69" cy="212.29" r="2.24"/><circle class="cls-15" cx="217.69" cy="212.29" r="2"/><circle class="cls-15" cx="217.69" cy="212.29" r="2"/><circle class="cls-15" cx="214.37" cy="230.34" r="2.24"/><circle class="cls-15" cx="214.37" cy="230.34" r="2"/><circle class="cls-15" cx="214.37" cy="230.34" r="2"/><circle class="cls-15" cx="218.81" cy="240.13" r="2.24"/><circle class="cls-15" cx="218.81" cy="240.13" r="2"/><circle class="cls-15" cx="218.81" cy="240.13" r="2"/><circle class="cls-15" cx="237.36" cy="240.84" r="2.24"/><circle class="cls-15" cx="237.36" cy="240.84" r="2"/><circle class="cls-15" cx="237.36" cy="240.84" r="2"/><circle class="cls-15" cx="247.56" cy="229.68" r="2.24"/><circle class="cls-15" cx="247.56" cy="229.68" r="2"/><circle class="cls-15" cx="247.56" cy="229.68" r="2"/><circle class="cls-15" cx="243.58" cy="213.88" r="2.24"/><circle class="cls-15" cx="243.58" cy="213.88" r="2"/><circle class="cls-15" cx="243.58" cy="213.88" r="2"/><circle class="cls-15" cx="232.88" cy="210.11" r="2.24"/><circle class="cls-15" cx="232.88" cy="210.11" r="2"/><circle class="cls-15" cx="232.88" cy="210.11" r="2"/><circle class="cls-15" cx="203.42" cy="210.56" r="2.24"/><circle class="cls-15" cx="203.42" cy="210.56" r="2"/><circle class="cls-15" cx="203.42" cy="210.56" r="2"/><circle class="cls-15" cx="174.95" cy="220.49" r="2.24"/><circle class="cls-15" cx="174.95" cy="220.49" r="2"/><circle class="cls-15" cx="174.95" cy="220.49" r="2"/><circle class="cls-15" cx="149.71" cy="226.92" r="2.24"/><circle class="cls-15" cx="149.71" cy="226.92" r="2"/><circle class="cls-15" cx="149.71" cy="226.92" r="2"/><circle class="cls-15" cx="124.42" cy="231.54" r="2.24"/><circle class="cls-15" cx="124.42" cy="231.54" r="2"/><circle class="cls-15" cx="124.42" cy="231.54" r="2"/><circle class="cls-15" cx="119.57" cy="221.12" r="2.24"/><circle class="cls-15" cx="119.57" cy="221.12" r="2"/><circle class="cls-15" cx="119.57" cy="221.12" r="2"/><circle class="cls-15" cx="125.08" cy="202.01" r="2.24"/><circle class="cls-15" cx="125.08" cy="202.01" r="2"/><circle class="cls-15" cx="125.08" cy="202.01" r="2"/><circle class="cls-15" cx="152.57" cy="177.5" r="2.24"/><circle class="cls-15" cx="152.57" cy="177.5" r="2"/><circle class="cls-15" cx="152.57" cy="177.5" r="2"/><circle class="cls-15" cx="190.02" cy="165.4" r="2.24"/><circle class="cls-15" cx="190.02" cy="165.4" r="2"/><circle class="cls-15" cx="190.02" cy="165.4" r="2"/><circle class="cls-15" cx="208.22" cy="169.71" r="2.24"/><circle class="cls-15" cx="208.22" cy="169.71" r="2"/><circle class="cls-15" cx="208.22" cy="169.71" r="2"/><circle class="cls-15" cx="214.05" cy="160.17" r="2.24"/><circle class="cls-15" cx="214.05" cy="160.17" r="2"/><circle class="cls-15" cx="214.05" cy="160.17" r="2"/><circle class="cls-15" cx="217.34" cy="124.04" r="2.24"/><circle class="cls-15" cx="217.34" cy="124.04" r="2"/><circle class="cls-15" cx="217.34" cy="124.04" r="2"/><circle class="cls-15" cx="216.82" cy="132.8" r="2.24"/><circle class="cls-15" cx="216.82" cy="132.8" r="2"/><circle class="cls-15" cx="216.82" cy="132.8" r="2"/><circle class="cls-15" cx="261.19" cy="161.74" r="2.24"/><circle class="cls-15" cx="261.19" cy="161.74" r="2"/><circle class="cls-15" cx="261.19" cy="161.74" r="2"/><circle class="cls-15" cx="260.89" cy="176.54" r="2.24"/><circle class="cls-15" cx="260.89" cy="176.54" r="2"/><circle class="cls-15" cx="260.89" cy="176.54" r="2"/><circle class="cls-15" cx="213.54" cy="180.97" r="2.24"/><circle class="cls-15" cx="213.54" cy="180.97" r="2"/><circle class="cls-15" cx="213.54" cy="180.97" r="2"/><circle class="cls-15" cx="182.37" cy="180.33" r="2.24"/><circle class="cls-15" cx="182.37" cy="180.33" r="2"/><circle class="cls-15" cx="182.37" cy="180.33" r="2"/><circle class="cls-15" cx="190.51" cy="176.06" r="2.24"/><circle class="cls-15" cx="190.51" cy="176.06" r="2"/><circle class="cls-15" cx="190.51" cy="176.06" r="2"/><circle class="cls-15" cx="261.48" cy="148.09" r="2.24"/><circle class="cls-15" cx="261.48" cy="148.09" r="2"/><circle class="cls-15" cx="261.48" cy="148.09" r="2"/><circle class="cls-15" cx="310.29" cy="142.99" r="2.24"/><circle class="cls-15" cx="310.29" cy="142.99" r="2"/><circle class="cls-15" cx="310.29" cy="142.99" r="2"/><circle class="cls-15" cx="320.33" cy="141.91" r="2.24"/><circle class="cls-15" cx="320.33" cy="141.91" r="2"/><circle class="cls-15" cx="320.33" cy="141.91" r="2"/><circle class="cls-15" cx="329.66" cy="120.74" r="2.24"/><circle class="cls-15" cx="329.66" cy="120.74" r="2"/><circle class="cls-15" cx="329.66" cy="120.74" r="2"/><circle class="cls-15" cx="338.05" cy="115.88" r="2.24"/><circle class="cls-15" cx="338.05" cy="115.88" r="2"/><circle class="cls-15" cx="338.05" cy="115.88" r="2"/><circle class="cls-15" cx="335.35" cy="127.29" r="2.24"/><circle class="cls-15" cx="335.35" cy="127.29" r="2"/><circle class="cls-15" cx="335.35" cy="127.29" r="2"/><circle class="cls-15" cx="276.94" cy="135.49" r="2.24"/><circle class="cls-15" cx="276.94" cy="135.49" r="2"/><circle class="cls-15" cx="276.94" cy="135.49" r="2"/><circle class="cls-15" cx="279.78" cy="143.45" r="2.24"/><circle class="cls-15" cx="279.78" cy="143.45" r="2"/><circle class="cls-15" cx="279.78" cy="143.45" r="2"/><circle class="cls-15" cx="310.65" cy="156.29" r="2.24"/><circle class="cls-15" cx="310.65" cy="156.29" r="2"/><circle class="cls-15" cx="310.65" cy="156.29" r="2"/><circle class="cls-15" cx="320.14" cy="156.21" r="2.24"/><circle class="cls-15" cx="320.14" cy="156.21" r="2"/><circle class="cls-15" cx="320.14" cy="156.21" r="2"/><circle class="cls-15" cx="360.11" cy="152.34" r="2.24"/><circle class="cls-15" cx="360.11" cy="152.34" r="2"/><circle class="cls-15" cx="360.11" cy="152.34" r="2"/><circle class="cls-15" cx="371.39" cy="164.59" r="2.24"/><circle class="cls-15" cx="371.39" cy="164.59" r="2"/><circle class="cls-15" cx="371.39" cy="164.59" r="2"/><circle class="cls-15" cx="386.13" cy="189.97" r="2.24"/><circle class="cls-15" cx="386.13" cy="189.97" r="2"/><circle class="cls-15" cx="386.13" cy="189.97" r="2"/><circle class="cls-15" cx="393.74" cy="211.61" r="2.24"/><circle class="cls-15" cx="393.74" cy="211.61" r="2"/><circle class="cls-15" cx="393.74" cy="211.61" r="2"/><circle class="cls-15" cx="397.34" cy="229.16" r="2.24"/><circle class="cls-15" cx="397.34" cy="229.16" r="2"/><circle class="cls-15" cx="397.34" cy="229.16" r="2"/><circle class="cls-15" cx="399.22" cy="250.17" r="2.24"/><circle class="cls-15" cx="399.22" cy="250.17" r="2"/><circle class="cls-15" cx="399.22" cy="250.17" r="2"/><circle class="cls-15" cx="400.83" cy="272.18" r="2.24"/><circle class="cls-15" cx="400.83" cy="272.18" r="2"/><circle class="cls-15" cx="400.83" cy="272.18" r="2"/><circle class="cls-15" cx="401.76" cy="289.31" r="2.24"/><circle class="cls-15" cx="401.76" cy="289.31" r="2"/><circle class="cls-15" cx="401.76" cy="289.31" r="2"/><circle class="cls-15" cx="397.64" cy="304.95" r="2.24"/><circle class="cls-15" cx="397.64" cy="304.95" r="2"/><circle class="cls-15" cx="397.64" cy="304.95" r="2"/><circle class="cls-15" cx="391.72" cy="322.43" r="2.24"/><circle class="cls-15" cx="391.72" cy="322.43" r="2"/><circle class="cls-15" cx="391.72" cy="322.43" r="2"/><circle class="cls-15" cx="368.13" cy="352.66" r="2.24"/><circle class="cls-15" cx="368.13" cy="352.66" r="2"/><circle class="cls-15" cx="368.13" cy="352.66" r="2"/><circle class="cls-15" cx="334.46" cy="372.33" r="2.24"/><circle class="cls-15" cx="334.46" cy="372.33" r="2"/><circle class="cls-15" cx="334.46" cy="372.33" r="2"/><circle class="cls-15" cx="283.79" cy="382.55" r="2.24"/><circle class="cls-15" cx="283.79" cy="382.55" r="2"/><circle class="cls-15" cx="283.79" cy="382.55" r="2"/><circle class="cls-15" cx="259.05" cy="384.34" r="2.24"/><circle class="cls-15" cx="259.05" cy="384.34" r="2"/><circle class="cls-15" cx="259.05" cy="384.34" r="2"/><circle class="cls-15" cx="236.87" cy="389.34" r="2.24"/><circle class="cls-15" cx="236.87" cy="389.34" r="2"/><circle class="cls-15" cx="236.87" cy="389.34" r="2"/><circle class="cls-15" cx="211.76" cy="395.16" r="2.24"/><circle class="cls-15" cx="211.76" cy="395.16" r="2"/><circle class="cls-15" cx="211.76" cy="395.16" r="2"/><circle class="cls-15" cx="201.4" cy="394.81" r="2.24"/><circle class="cls-15" cx="201.4" cy="394.81" r="2"/><circle class="cls-15" cx="201.4" cy="394.81" r="2"/><circle class="cls-15" cx="171.03" cy="388.59" r="2.24"/><circle class="cls-15" cx="171.03" cy="388.59" r="2"/><circle class="cls-15" cx="171.03" cy="388.59" r="2"/><circle class="cls-15" cx="161.77" cy="385.51" r="2.24"/><circle class="cls-15" cx="161.77" cy="385.51" r="2"/><circle class="cls-15" cx="161.77" cy="385.51" r="2"/><circle class="cls-15" cx="171.73" cy="368.61" r="2.24"/><circle class="cls-15" cx="171.73" cy="368.61" r="2"/><circle class="cls-15" cx="171.73" cy="368.61" r="2"/><circle class="cls-15" cx="176.16" cy="348.09" r="2.24"/><circle class="cls-15" cx="176.16" cy="348.09" r="2"/><circle class="cls-15" cx="176.16" cy="348.09" r="2"/><circle class="cls-15" cx="175.96" cy="319.57" r="2.24"/><circle class="cls-15" cx="175.96" cy="319.57" r="2"/><circle class="cls-15" cx="175.96" cy="319.57" r="2"/><circle class="cls-15" cx="173.65" cy="302.74" r="2.24"/><circle class="cls-15" cx="173.65" cy="302.74" r="2"/><circle class="cls-15" cx="173.65" cy="302.74" r="2"/><circle class="cls-15" cx="176.46" cy="288.94" r="2.24"/><circle class="cls-15" cx="176.46" cy="288.94" r="2"/><circle class="cls-15" cx="176.46" cy="288.94" r="2"/></g><path class="cls-16" d="M216.38 227.25a66.38 66.38 0 0 0-1.45-17.37 19.72 19.72 0 0 0-3.38-7.55 7.86 7.86 0 0 0-6.72-3 9 9 0 0 0-6.77 3.37 19.61 19.61 0 0 0-3.54 7.48 61.26 61.26 0 0 0-1.54 17.33c.06 1.64-1.08 1.79-1.31.1a66.25 66.25 0 0 1-.41-9 45.28 45.28 0 0 1 1-9 21.1 21.1 0 0 1 3.8-8.54 11.33 11.33 0 0 1 3.81-3.14 12.16 12.16 0 0 1 4.8-1.23 10.28 10.28 0 0 1 8.81 4.06 16.54 16.54 0 0 1 2.32 4.18 26.25 26.25 0 0 1 1.31 4.44 48.09 48.09 0 0 1 .94 9 72.08 72.08 0 0 1-.4 9c-.21 1.98-1.34 1.83-1.27-.13zM268.33 227.35a72.08 72.08 0 0 1-.4-9 48.09 48.09 0 0 1 .94-9 26.24 26.24 0 0 1 1.31-4.44 16.54 16.54 0 0 1 2.32-4.18 10.28 10.28 0 0 1 8.81-4.06 12.16 12.16 0 0 1 4.8 1.23 11.33 11.33 0 0 1 3.81 3.14 21.11 21.11 0 0 1 3.8 8.54 45.29 45.29 0 0 1 1 9 66.23 66.23 0 0 1-.41 9c-.24 1.69-1.38 1.54-1.31-.1a61.25 61.25 0 0 0-1.54-17.33 19.61 19.61 0 0 0-3.54-7.48 9 9 0 0 0-6.77-3.37 7.86 7.86 0 0 0-6.72 3 19.72 19.72 0 0 0-3.38 7.55 66.38 66.38 0 0 0-1.45 17.37c.13 1.99-1 2.14-1.27.13z"/><path class="cls-4" d="M244.68 261.69c-7.52-.65-12.13 4.54-14.64 8.88 2.49 7.22 6.65 12.72 13.6 12.34S254.85 277 257.71 270c-2.41-3.73-6.47-7.74-13.03-8.31z"/><path class="cls-17 cls-11 cls-4" d="M238.74 258.82s-8.12 14.78 10.22 22.56-4.22 12.3-6.81 10.86-18.5-16.58-18.5-16.58l-2.36-9.75z"/><path class="cls-18" d="M226.5 239s-.95 18.59 3.54 31.58c2.51-4.33 7.12-9.52 14.64-8.88 6.56.56 10.62 4.57 13 8.32 5.29-13 5.24-31 5.24-31C242 253.4 226.5 239 226.5 239z"/><path class="cls-5" d="M202.46 268.36c17.57.41 11 44.66 10.58 59.14s2.65 27.33 2.86 36.71 5.1 37.73-16.11 37.53-8.16-55.27-8-66.69c.01-.05-6.89-67.1 10.67-66.69zm59.64 0c-17.57.41-11 44.66-10.58 59.14s-2.65 27.33-2.86 36.71-5.1 37.73 16.11 37.53 8.16-55.27 8-66.69c-.04-.05 6.9-67.1-10.67-66.69z"/><g class="cls-19"><path class="cls-11 cls-12" d="M214.29 319.75l-17.49 9.79s-.26 25.56-2.7 37.8-.94 29.37 7.69 35.89-17.06 3-17.06 3-18.42-15.5-17.88-20.12-3.5-60.37-2.41-67.71 9.26-52.48 9.26-52.48l21.76-4.27 6.6 2.64a177.16 177.16 0 0 0-4.45 34c-.27 16.86 16.64 13.05 16.64 13.05v8.43zM278.29 319.75l-18.49 9.79s-.76 25.56-3.2 37.8-1.19 29.37 7.44 35.89-17.19 3-17.19 3-18.48-15.5-17.94-20.12-3.53-60.37-2.44-67.71 9.25-52.48 9.25-52.48l21.76-4.27 6.6 2.64a234.91 234.91 0 0 0-3.45 34c-.27 16.86 17.64 13.05 17.64 13.05v8.43z"/></g><path class="cls-6" d="M352.75 251.63s1.22-14.28 12.44-11.22c0 0 18.56 17.74 0 37.12s-37.33 25.47-60.39 31-22.21 11.39-44 13.86-26.31-7.53-26.11-16.3 8.09-19.78 27.81-19.38 17.47 7.75 37.46 4.49 40.79-13.56 47.72-18.92 13.02-12.49 5.07-20.65zm-214.46 3.63s-22.43 4.94-20.39 23.5 18 22.43 36.56 26.72 15.13 13.05 37.44 15.09 31.25-8 29-21.21-24.27-12.44-49.77-12.64S138.29 275 138.29 275v-19.74z"/><g class="cls-20"><path class="cls-11 cls-21" d="M137.58 273.79s-8.16 10.88 3.54 16.86 25.83 8.7 31.54 13.87 33.45 11.15 51.67 0 5.71 25.56 5.71 25.56l-67.44-1.36s-41.34-20.39-41.34-21.72-8.46-43.54-8.46-43.54 32.09-17.09 32.9-18.06 18.49-2.06 18.49-2.06zM233.3 300.31s.14 12.3 21.62 11.49 30.39-7 30.39-7 14.92 2.19 47.28-10.86 43.21-27.22 43.21-27.22L369.27 291l-79.14 35.13h-40s-8.7-2.85-11.42-3.42-8.7-6.78-8.7-6.78z"/></g><path class="cls-22" d="M142.28 74.09h3v72h-3zM167.28 99.09h3v25h-3zM367.28 63.09h3v56h-3zM341.28 102.09h3v29h-3z"/><path class="cls-23" d="M7.8 570.59c.33-1.1 1.1-1.43 2-.88 5.07 2.87 11.13 5 15.32 5.29 3.53 0 5.84-1.65 5.84-4.19 0-6.5-31-6.17-31-30.2C0 525.84 11.14 516 27.89 516c7.83 0 17.75 3.2 24.69 7.94a1.6 1.6 0 0 1 .88 2l-6.94 15.54c-.33 1.1-1.1 1.43-2 .88-5.4-3.09-11.68-5.4-15.54-5.73-3.42 0-5.62 1.54-5.62 4 0 6.5 31.2 6.06 31.2 30.31 0 14.66-11.35 24.47-28.33 24.47-9.26 0-19-2.87-24.47-7.27-.88-.66-1.21-1.43-.88-2zM116.41 533.11a1.7 1.7 0 0 1 1.65 1.65v57.43a1.68 1.68 0 0 1-1.65 1.54h-12.46a2.09 2.09 0 0 1-1.76-1.65l-1.65-4c-4 4.41-10.47 7.27-17.64 7.27-14.33 0-22.82-9.15-22.82-24.14v-36.44a1.7 1.7 0 0 1 1.65-1.65h19.4a1.7 1.7 0 0 1 1.67 1.65v33.73c0 3.75 2.31 6.28 5.84 6.28a8.75 8.75 0 0 0 6.72-3.53v-36.48a1.7 1.7 0 0 1 1.65-1.65h19.4zM164.25 585.8c-1.76 3.53-7.05 5.84-13.23 5.84-16.09 0-26.79-11.57-26.79-29 0-19.51 9.92-31.08 26.79-31.08 8.49 0 15.21 2.31 18.08 6.28l2-3.09a3.37 3.37 0 0 1 2.54-1.65h11.66a1.56 1.56 0 0 1 1.65 1.65v53.35c0 16.64-15.1 27.78-33.84 27.78-10.91 0-20.61-2.54-26-6.94a1.72 1.72 0 0 1-.66-1.87l5.62-13.67a1.08 1.08 0 0 1 1.65-.66c4.74 3.86 12 6.17 19.4 6.17 6.94 0 11.13-3.64 11.13-9.92v-3.2zm0-28.66a7.85 7.85 0 0 0-7.61-5c-5.51 0-8.71 3.86-8.71 10.47s3.2 10.58 8.71 10.58a7.85 7.85 0 0 0 7.61-5v-11.05zM198.8 539.95a1.73 1.73 0 0 1 .55-2.09c6.28-4 15.1-6.28 23.92-6.28 19.07 0 27.89 10 27.89 32v28.55a1.7 1.7 0 0 1-1.65 1.65h-13.94a1.8 1.8 0 0 1-1.76-1.65l-.77-3c-3.64 3.86-10.91 6.28-19 6.28-12.68 0-21.05-8.16-20.94-20.28.11-10.8 8.49-18 20.94-18 6.39 0 12.13 2.31 14.33 5.84v-4.63c0-4.74-3.42-7.83-8.49-7.83a28.89 28.89 0 0 0-13.23 3.53c-.55.33-1.21-.11-1.65-.88zm29.65 34a8.17 8.17 0 0 0-6.06-2.76c-2.76 0-4.63 1.54-4.63 4s1.87 4 4.63 4a8.17 8.17 0 0 0 6.06-2.76v-2.53zM294 533.11a1.51 1.51 0 0 1 1.54 1.54V549a1.51 1.51 0 0 1-1.54 1.54h-2.87c-4.19 0-7.94 1.87-9.37 4.63v36.93a1.7 1.7 0 0 1-1.65 1.65h-19.4a1.7 1.7 0 0 1-1.65-1.65v-57.33a1.68 1.68 0 0 1 1.65-1.54h12.46a2.1 2.1 0 0 1 1.76 1.65l1.65 4.85a18.76 18.76 0 0 1 14.55-6.61H294zM376.34 587a1.56 1.56 0 0 1-1 2 45.55 45.55 0 0 1-23.15 6.39c-22.71 0-37.92-15.87-37.92-39.68S329.49 516 352.2 516a45.55 45.55 0 0 1 23.15 6.39 1.56 1.56 0 0 1 1 2l-7.28 15.32a1.43 1.43 0 0 1-2.09.88 24.43 24.43 0 0 0-12.79-3.09c-9.92 0-16.53 7.28-16.53 18.19s6.61 18.19 16.53 18.19a24.43 24.43 0 0 0 12.79-3.09 1.43 1.43 0 0 1 2.09.88zM388.69 570.59c.33-1.1 1.1-1.43 2-.88 5.07 2.87 11.13 5 15.32 5.29 3.53 0 5.84-1.65 5.84-4.19 0-6.5-31-6.17-31-30.2 0-14.77 11.13-24.58 27.89-24.58 7.83 0 17.75 3.2 24.69 7.94a1.6 1.6 0 0 1 .88 2l-6.94 15.54c-.33 1.1-1.1 1.43-2 .88-5.4-3.09-11.68-5.4-15.54-5.73-3.42 0-5.62 1.54-5.62 4 0 6.5 31.2 6.06 31.2 30.31 0 14.66-11.35 24.47-28.33 24.47-9.26 0-19-2.87-24.47-7.27-.88-.66-1.21-1.43-.88-2zM447.66 570.59c.33-1.1 1.1-1.43 2-.88 5.07 2.87 11.13 5 15.32 5.29 3.53 0 5.84-1.65 5.84-4.19 0-6.5-31-6.17-31-30.2 0-14.77 11.13-24.58 27.89-24.58 7.83 0 17.75 3.2 24.69 7.94a1.6 1.6 0 0 1 .88 2l-6.94 15.54c-.33 1.1-1.1 1.43-2 .88-5.4-3.09-11.68-5.4-15.54-5.73-3.42 0-5.62 1.54-5.62 4 0 6.5 31.2 6.06 31.2 30.31 0 14.66-11.35 24.47-28.33 24.47-9.26 0-19-2.87-24.47-7.27-.88-.66-1.21-1.43-.88-2z"/></g></g></svg>